<svg width="21" height="79" viewBox="0 0 21 79" fill="none" xmlns="http://www.w3.org/2000/svg">
<path d="M8.44061 59.3298L8.44061 70.6088C8.44032 70.6392 8.43057 70.6688 8.41257 70.6939C8.39458 70.719 8.36915 70.7386 8.33948 70.75C8.30982 70.7615 8.27724 70.7644 8.24585 70.7583C8.21446 70.7523 8.18566 70.7375 8.16307 70.716L2.0077 64.7597C1.98503 64.7375 1.95576 64.7223 1.92377 64.7162C1.89179 64.7102 1.85861 64.7135 1.82868 64.7258C1.79875 64.7381 1.77348 64.7587 1.75624 64.785C1.739 64.8113 1.73062 64.8419 1.73221 64.8728L1.89462 70.4528C1.89475 70.4724 1.899 70.4919 1.90712 70.5099C1.91524 70.528 1.92706 70.5444 1.94191 70.5581L10.2457 78.624C10.261 78.639 10.2794 78.6509 10.2997 78.6591C10.32 78.6673 10.3418 78.6715 10.3639 78.6715C10.386 78.6715 10.4078 78.6673 10.4281 78.6591C10.4484 78.6509 10.4668 78.639 10.4821 78.624L18.9956 70.601C19.0112 70.5858 19.0235 70.5678 19.0316 70.548C19.0397 70.5283 19.0436 70.5071 19.0429 70.4859L18.9504 65.3973C18.9497 65.3673 18.9398 65.3381 18.9219 65.3134C18.904 65.2887 18.8789 65.2694 18.8497 65.2581C18.8204 65.2467 18.7883 65.2436 18.7573 65.2493C18.7262 65.255 18.6976 65.2691 18.6749 65.29L12.8217 70.6809C12.7993 70.7021 12.7708 70.7165 12.7398 70.7223C12.7088 70.7281 12.6766 70.7251 12.6474 70.7136C12.6182 70.7022 12.5932 70.6828 12.5755 70.6579C12.5579 70.633 12.5484 70.6037 12.5483 70.5737L12.5483 59.5092C12.5493 59.4564 12.5535 59.4036 12.5606 59.3513C12.5639 59.3297 12.5622 59.3078 12.5557 59.2869C12.5493 59.2661 12.5382 59.2468 12.5232 59.2303C12.5082 59.2139 12.4896 59.2007 12.4688 59.1916C12.4479 59.1825 12.4253 59.1778 12.4023 59.1777L8.60097 59.1777C8.55844 59.1777 8.51766 59.1938 8.48758 59.2223C8.45751 59.2508 8.44061 59.2895 8.44061 59.3298Z" fill="#FF4D9A"/>
<path d="M12.2508 19.8343L12.2508 8.55529C12.2511 8.52491 12.2608 8.49529 12.2788 8.47016C12.2968 8.44503 12.3223 8.42551 12.3519 8.41405C12.3816 8.40258 12.4142 8.3997 12.4456 8.40575C12.4769 8.4118 12.5057 8.42652 12.5283 8.44805L18.6837 14.4044C18.7064 14.4266 18.7356 14.4418 18.7676 14.4478C18.7996 14.4539 18.8328 14.4505 18.8627 14.4383C18.8927 14.426 18.9179 14.4053 18.9352 14.3791C18.9524 14.3528 18.9608 14.3222 18.9592 14.2913L18.7968 8.71126C18.7967 8.69162 18.7924 8.67219 18.7843 8.65411C18.7762 8.63604 18.7643 8.61968 18.7495 8.60598L10.4457 0.540104C10.4304 0.525068 10.412 0.513113 10.3917 0.504947C10.3714 0.496782 10.3496 0.492572 10.3275 0.492572C10.3054 0.492572 10.2836 0.496782 10.2633 0.504947C10.243 0.513113 10.2246 0.525068 10.2093 0.540104L1.6958 8.56308C1.68017 8.57826 1.66793 8.59627 1.65981 8.61604C1.65169 8.6358 1.64784 8.65691 1.64851 8.67812L1.74103 13.7668C1.7417 13.7968 1.75159 13.8259 1.76948 13.8507C1.78737 13.8754 1.81248 13.8946 1.84174 13.906C1.87099 13.9174 1.90311 13.9204 1.93415 13.9148C1.9652 13.9091 1.99383 13.8949 2.01652 13.874L7.86967 8.48315C7.89209 8.462 7.92061 8.44761 7.95163 8.44179C7.98265 8.43597 8.0148 8.43899 8.04402 8.45045C8.07325 8.46191 8.09825 8.48131 8.11588 8.50621C8.1335 8.5311 8.14298 8.56039 8.1431 8.59038L8.1431 19.6549C8.14206 19.7077 8.13794 19.7604 8.13077 19.8128C8.12753 19.8343 8.12921 19.8563 8.13567 19.8771C8.14214 19.898 8.15325 19.9173 8.16825 19.9338C8.18326 19.9502 8.2018 19.9634 8.22265 19.9725C8.24349 19.9815 8.26614 19.9863 8.28907 19.9863L12.0904 19.9863C12.133 19.9863 12.1738 19.9703 12.2038 19.9418C12.2339 19.9133 12.2508 19.8746 12.2508 19.8343Z" fill="#FF4D9A"/>
<path d="M0.29708 50.7929L12.1905 50.7929C12.2225 50.7932 12.2537 50.8024 12.2802 50.8195C12.3067 50.8366 12.3273 50.8607 12.3394 50.8888C12.3515 50.917 12.3545 50.9478 12.3481 50.9776C12.3418 51.0074 12.3262 51.0347 12.3035 51.0561L6.02276 56.8935C5.99931 56.915 5.98332 56.9428 5.97693 56.9731C5.97055 57.0034 5.97407 57.0349 5.98703 57.0633C5.99998 57.0917 6.02176 57.1156 6.04945 57.132C6.07714 57.1483 6.10943 57.1563 6.14201 57.1548L12.026 57.0007C12.0467 57.0006 12.0672 56.9966 12.0863 56.9889C12.1053 56.9812 12.1226 56.97 12.137 56.9559L20.6423 49.0811C20.6581 49.0665 20.6707 49.0491 20.6793 49.0299C20.688 49.0106 20.6924 48.9899 20.6924 48.969C20.6924 48.9481 20.688 48.9274 20.6793 48.9081C20.6707 48.8888 20.6581 48.8714 20.6423 48.8569L12.1822 40.7832C12.1662 40.7684 12.1472 40.7568 12.1264 40.7491C12.1056 40.7414 12.0833 40.7377 12.0609 40.7384L6.69504 40.8261C6.66343 40.8267 6.6327 40.8361 6.60663 40.8531C6.58056 40.87 6.56028 40.8939 6.54827 40.9216C6.53626 40.9493 6.53306 40.9798 6.53904 41.0092C6.54503 41.0387 6.55995 41.0658 6.58197 41.0873L12.2665 46.6381C12.2888 46.6594 12.304 46.6864 12.3101 46.7158C12.3163 46.7453 12.3131 46.7758 12.301 46.8035C12.2889 46.8312 12.2685 46.8549 12.2422 46.8716C12.216 46.8883 12.1851 46.8973 12.1535 46.8974L0.486222 46.8974C0.430528 46.8964 0.374934 46.8925 0.319694 46.8857C0.296992 46.8827 0.27386 46.8842 0.251859 46.8904C0.229858 46.8965 0.2095 46.9071 0.192158 46.9213C0.174816 46.9355 0.160893 46.9531 0.15133 46.9729C0.141766 46.9926 0.136784 47.0141 0.136719 47.0359L0.136719 50.6408C0.136719 50.6812 0.153614 50.7199 0.183688 50.7484C0.213761 50.7769 0.254549 50.7929 0.29708 50.7929Z" fill="#FF4D9A"/>
<path d="M20.3963 28.2598L8.50289 28.2598C8.47086 28.2595 8.43963 28.2503 8.41313 28.2332C8.38663 28.2162 8.36605 28.192 8.35396 28.1639C8.34188 28.1358 8.33883 28.1049 8.34521 28.0751C8.35159 28.0454 8.36711 28.018 8.38982 27.9966L14.6706 22.1592C14.6941 22.1377 14.71 22.11 14.7164 22.0796C14.7228 22.0493 14.7193 22.0179 14.7063 21.9895C14.6934 21.9611 14.6716 21.9371 14.6439 21.9208C14.6162 21.9044 14.5839 21.8965 14.5514 21.898L8.66737 22.052C8.64665 22.0521 8.62617 22.0562 8.60711 22.0639C8.58805 22.0715 8.57079 22.0828 8.55635 22.0968L0.0510881 29.9717C0.0352323 29.9862 0.0226247 30.0036 0.0140149 30.0229C0.00540515 30.0421 0.000966749 30.0628 0.00096675 30.0838C0.000966751 30.1047 0.00540515 30.1254 0.0140149 30.1446C0.0226247 30.1639 0.0352323 30.1813 0.0510881 30.1959L8.51112 38.2695C8.52713 38.2844 8.54611 38.296 8.56695 38.3037C8.5878 38.3114 8.61006 38.315 8.63242 38.3144L13.9983 38.2266C14.0299 38.226 14.0607 38.2166 14.0867 38.1997C14.1128 38.1827 14.1331 38.1589 14.1451 38.1311C14.1571 38.1034 14.1603 38.0729 14.1543 38.0435C14.1483 38.0141 14.1334 37.9869 14.1114 37.9654L8.42683 32.4146C8.40453 32.3934 8.38936 32.3663 8.38322 32.3369C8.37708 32.3075 8.38026 32.277 8.39234 32.2493C8.40443 32.2216 8.42489 32.1978 8.45114 32.1811C8.4774 32.1644 8.50828 32.1554 8.5399 32.1553L20.2071 32.1553C20.2628 32.1563 20.3184 32.1602 20.3737 32.167C20.3964 32.1701 20.4195 32.1685 20.4415 32.1624C20.4635 32.1562 20.4839 32.1457 20.5012 32.1315C20.5185 32.1172 20.5325 32.0996 20.542 32.0799C20.5516 32.0601 20.5566 32.0386 20.5566 32.0169L20.5566 28.4119C20.5566 28.3716 20.5397 28.3329 20.5097 28.3044C20.4796 28.2758 20.4388 28.2598 20.3963 28.2598Z" fill="#FF4D9A"/>
</svg>
