<svg width="1031" height="602" viewBox="0 0 1031 602" fill="none" xmlns="http://www.w3.org/2000/svg">
<path d="M84.5415 350.885V185.379H124.925C124.925 196.192 120.511 207.667 111.684 219.804H132.538C135.407 207.447 140.593 197.847 148.096 191.006C155.599 183.945 165.198 180.414 176.894 180.414C187.707 180.414 197.086 183.834 205.03 190.675C213.195 197.516 218.381 207.226 220.587 219.804H236.145C240.117 207.226 246.296 197.516 254.682 190.675C263.067 183.834 272.667 180.414 283.48 180.414C299.368 180.414 312.278 185.931 322.208 196.964C332.359 207.778 337.435 223.225 337.435 243.306V350.885H290.431V250.257C290.431 229.514 281.825 219.142 264.612 219.142C257.992 219.363 252.475 220.797 248.061 223.445C243.648 226.094 240.448 229.955 238.462 235.031C236.697 239.886 235.483 244.63 234.821 249.264C234.38 253.899 234.159 259.636 234.159 266.477V350.885H187.817V250.257C187.817 229.514 179.211 219.142 161.998 219.142C155.378 219.363 149.861 220.797 145.448 223.445C141.034 226.094 137.834 229.955 135.848 235.031C134.083 239.886 132.869 244.63 132.207 249.264C131.766 253.899 131.545 259.636 131.545 266.477V350.885H84.5415ZM362.082 250.919C362.082 231.5 363.737 213.184 367.047 195.971C370.578 178.538 375.764 162.539 382.605 147.975C389.666 133.19 399.266 121.273 411.403 112.225C423.761 103.178 437.884 98.323 453.772 97.6609V138.044C435.015 141.575 422.216 153.602 415.375 174.125C408.534 194.427 405.114 220.025 405.114 250.919C405.114 281.593 408.534 307.191 415.375 327.714C422.216 348.237 435.015 360.264 453.772 363.794V403.847C437.884 402.302 423.871 397.006 411.734 387.958C399.597 378.911 389.997 367.105 382.936 352.54C375.874 338.196 370.578 322.528 367.047 305.536C363.737 288.324 362.082 270.118 362.082 250.919ZM473.55 296.93V185.379H520.554V286.007C520.554 306.75 528.829 317.122 545.38 317.122C556.414 317.122 564.689 312.708 570.206 303.881C575.723 295.054 578.481 282.807 578.481 267.139V185.379H625.485V350.885H581.791C582.012 340.513 587.308 327.825 597.68 312.819H577.488C572.854 326.059 566.013 336.651 556.965 344.596C548.138 352.319 537.546 356.181 525.188 356.181C509.52 356.181 496.942 350.885 487.453 340.293C478.184 329.48 473.55 315.025 473.55 296.93ZM639.99 350.885L703.213 264.822L642.638 185.379H699.572L709.171 198.951C717.115 210.205 720.867 227.528 720.426 250.919H737.969C737.969 232.824 743.927 215.501 755.844 198.951L765.774 185.379H817.081L756.506 265.484L821.715 350.885H764.119L751.541 332.679C743.155 320.984 739.183 303.661 739.624 280.71H722.081C722.081 296.82 716.012 313.701 703.875 331.355L690.634 350.885H639.99ZM912.963 250.588C912.963 270.008 911.198 288.434 907.667 305.867C904.357 323.08 899.171 338.969 892.109 353.533C885.269 368.318 875.669 380.235 863.311 389.282C851.174 398.33 837.162 403.185 821.273 403.847V363.463C840.03 359.933 852.829 347.906 859.67 327.383C866.511 307.081 869.932 281.483 869.932 250.588C869.932 219.915 866.511 194.427 859.67 174.125C852.829 153.381 840.03 141.244 821.273 137.713V97.6609C837.162 99.2057 851.174 104.502 863.311 113.55C875.449 122.597 885.048 134.403 892.109 148.968C899.171 163.312 904.357 179.09 907.667 196.302C911.198 213.294 912.963 231.39 912.963 250.588Z" fill="#FF4D9A"/>
<path d="M577.972 428.716L504.078 428.716C503.879 428.715 503.685 428.654 503.521 428.542C503.356 428.43 503.228 428.272 503.153 428.088C503.078 427.904 503.059 427.701 503.099 427.506C503.138 427.311 503.235 427.132 503.376 426.992L542.398 388.749C542.544 388.608 542.643 388.426 542.683 388.227C542.723 388.028 542.701 387.822 542.62 387.636C542.54 387.45 542.404 387.293 542.232 387.186C542.06 387.079 541.86 387.027 541.657 387.037L505.1 388.046C504.971 388.047 504.844 388.073 504.726 388.124C504.607 388.174 504.5 388.248 504.41 388.34L451.567 439.931C451.469 440.027 451.39 440.141 451.337 440.267C451.283 440.393 451.256 440.529 451.256 440.666C451.256 440.803 451.283 440.938 451.337 441.065C451.39 441.191 451.469 441.305 451.567 441.4L504.129 494.295C504.229 494.392 504.347 494.468 504.476 494.518C504.606 494.569 504.744 494.593 504.883 494.588L538.221 494.014C538.418 494.009 538.609 493.948 538.771 493.837C538.933 493.726 539.059 493.57 539.133 493.388C539.208 493.206 539.228 493.007 539.191 492.814C539.153 492.621 539.061 492.443 538.924 492.302L503.606 455.936C503.467 455.797 503.373 455.62 503.335 455.427C503.297 455.234 503.316 455.035 503.391 454.853C503.466 454.671 503.594 454.516 503.757 454.407C503.92 454.297 504.112 454.238 504.308 454.237L576.797 454.237C577.143 454.244 577.488 454.27 577.831 454.314C577.972 454.334 578.116 454.324 578.253 454.284C578.39 454.243 578.516 454.174 578.624 454.081C578.732 453.988 578.818 453.873 578.877 453.743C578.937 453.614 578.968 453.473 578.968 453.331L578.968 429.713C578.968 429.448 578.863 429.195 578.676 429.008C578.49 428.821 578.236 428.716 577.972 428.716Z" fill="#FF4D9A"/>
<path d="M836.731 452.394H910.624C910.823 452.395 911.017 452.456 911.182 452.568C911.347 452.68 911.475 452.838 911.55 453.022C911.625 453.206 911.644 453.409 911.604 453.604C911.564 453.799 911.468 453.978 911.327 454.118L872.304 492.361C872.159 492.502 872.059 492.684 872.02 492.883C871.98 493.081 872.002 493.288 872.082 493.474C872.163 493.66 872.298 493.817 872.47 493.924C872.642 494.031 872.843 494.083 873.045 494.073L909.603 493.064C909.731 493.063 909.859 493.037 909.977 492.986C910.095 492.936 910.203 492.862 910.292 492.77L963.136 441.179C963.234 441.083 963.312 440.969 963.366 440.843C963.419 440.717 963.447 440.581 963.447 440.444C963.447 440.307 963.419 440.171 963.366 440.045C963.312 439.919 963.234 439.805 963.136 439.71L910.573 386.815C910.474 386.718 910.356 386.642 910.226 386.592C910.097 386.541 909.959 386.517 909.82 386.521L876.481 387.096C876.285 387.1 876.094 387.162 875.932 387.273C875.77 387.384 875.644 387.54 875.569 387.722C875.495 387.904 875.475 388.103 875.512 388.296C875.549 388.489 875.642 388.667 875.779 388.808L911.097 425.174C911.236 425.313 911.33 425.49 911.368 425.683C911.406 425.876 911.386 426.075 911.311 426.257C911.236 426.438 911.109 426.594 910.946 426.703C910.783 426.813 910.591 426.872 910.394 426.872H837.906C837.56 426.866 837.214 426.84 836.871 426.796C836.73 426.776 836.586 426.786 836.45 426.826C836.313 426.866 836.187 426.935 836.079 427.029C835.971 427.122 835.885 427.237 835.825 427.367C835.766 427.496 835.735 427.637 835.734 427.779V451.397C835.734 451.661 835.839 451.915 836.026 452.102C836.213 452.289 836.466 452.394 836.731 452.394Z" fill="#FF4D9A"/>
<path d="M633.907 378.117L633.907 452.011C633.905 452.21 633.844 452.404 633.733 452.569C633.621 452.733 633.463 452.861 633.278 452.936C633.094 453.012 632.892 453.03 632.697 452.991C632.502 452.951 632.323 452.855 632.182 452.714L593.939 413.691C593.798 413.545 593.616 413.446 593.418 413.406C593.219 413.367 593.013 413.389 592.827 413.469C592.641 413.55 592.484 413.685 592.377 413.857C592.27 414.029 592.218 414.23 592.227 414.432L593.236 450.989C593.237 451.118 593.264 451.245 593.314 451.364C593.365 451.482 593.438 451.589 593.53 451.679L645.122 504.522C645.217 504.621 645.331 504.699 645.457 504.753C645.584 504.806 645.719 504.834 645.856 504.834C645.993 504.834 646.129 504.806 646.255 504.753C646.381 504.699 646.495 504.621 646.591 504.522L699.485 451.96C699.582 451.861 699.658 451.743 699.709 451.613C699.759 451.484 699.783 451.345 699.779 451.206L699.204 417.868C699.2 417.672 699.138 417.481 699.027 417.319C698.916 417.157 698.76 417.031 698.578 416.956C698.397 416.882 698.197 416.862 698.004 416.899C697.811 416.936 697.633 417.029 697.492 417.165L661.127 452.484C660.987 452.622 660.81 452.717 660.617 452.755C660.425 452.793 660.225 452.773 660.043 452.698C659.862 452.623 659.707 452.496 659.597 452.333C659.488 452.17 659.429 451.978 659.428 451.781L659.428 379.293C659.434 378.947 659.46 378.601 659.505 378.258C659.525 378.117 659.514 377.973 659.474 377.836C659.434 377.7 659.365 377.573 659.272 377.466C659.178 377.358 659.063 377.271 658.934 377.212C658.804 377.152 658.663 377.121 658.521 377.121L634.903 377.121C634.639 377.121 634.385 377.226 634.199 377.413C634.012 377.6 633.907 377.853 633.907 378.117Z" fill="#FF4D9A"/>
<path d="M781.53 502.992L781.53 429.099C781.532 428.9 781.593 428.706 781.704 428.541C781.816 428.376 781.974 428.248 782.159 428.173C782.343 428.098 782.545 428.079 782.74 428.119C782.935 428.159 783.114 428.255 783.255 428.396L821.498 467.419C821.639 467.564 821.821 467.664 822.019 467.703C822.218 467.743 822.424 467.721 822.61 467.641C822.796 467.56 822.953 467.425 823.06 467.253C823.167 467.081 823.22 466.88 823.21 466.678L822.201 430.121C822.2 429.992 822.173 429.865 822.123 429.746C822.072 429.628 821.999 429.521 821.907 429.431L770.315 376.588C770.22 376.489 770.106 376.411 769.98 376.357C769.853 376.304 769.718 376.276 769.581 376.276C769.444 376.276 769.308 376.304 769.182 376.357C769.056 376.411 768.942 376.489 768.846 376.588L715.952 429.15C715.855 429.249 715.779 429.367 715.728 429.497C715.678 429.626 715.654 429.765 715.658 429.903L716.233 463.242C716.237 463.438 716.299 463.629 716.41 463.791C716.521 463.953 716.677 464.079 716.859 464.154C717.04 464.228 717.24 464.248 717.433 464.211C717.626 464.174 717.804 464.081 717.945 463.944L754.31 428.626C754.45 428.488 754.627 428.393 754.82 428.355C755.012 428.317 755.212 428.337 755.394 428.412C755.575 428.487 755.73 428.614 755.84 428.777C755.95 428.94 756.008 429.132 756.009 429.329L756.009 501.817C756.003 502.163 755.977 502.509 755.932 502.852C755.912 502.993 755.923 503.137 755.963 503.273C756.003 503.41 756.072 503.537 756.165 503.644C756.259 503.752 756.374 503.839 756.503 503.898C756.633 503.957 756.774 503.988 756.916 503.989L780.534 503.989C780.798 503.989 781.052 503.884 781.238 503.697C781.425 503.51 781.53 503.257 781.53 502.992Z" fill="#FF4D9A"/>
</svg>
