<svg width="3113" height="3690" viewBox="0 0 3113 3690" fill="none" xmlns="http://www.w3.org/2000/svg">
<rect x="4" y="4" width="3105" height="3682" fill="white"/>
<rect x="4" y="4" width="3105" height="3682" stroke="#FF4D9A" stroke-width="8"/>
<rect x="8" y="8" width="3097" height="133" fill="#FF4D9A"/>
<circle cx="108.499" cy="76.7256" r="35.8311" fill="#F8F851"/>
<circle cx="213.058" cy="76.7256" r="35.8311" fill="#F8F851"/>
<circle cx="317.612" cy="76.7256" r="35.8311" fill="#F8F851"/>
<rect opacity="0.3" x="3051" y="207" width="20" height="370.588" rx="10" fill="#FF4D9A"/>
<mask id="path-7-inside-1_759_2152" fill="white">
<path d="M1117 211H2965.13V313.407H1117V211Z"/>
</mask>
<path d="M1117 218H2965.13V204H1117V218ZM2965.13 306.407H1117V320.407H2965.13V306.407Z" fill="#FF4D9A" mask="url(#path-7-inside-1_759_2152)"/>
<path d="M1126.41 250.309H1134.49V252.191H1128.77V278.837H1134.49V280.72H1126.41V250.309ZM1159.26 251.033H1163.02L1166.75 265.442C1167.5 268.362 1167.91 270.571 1167.98 272.067H1168.09C1168.16 270.571 1168.57 268.362 1169.32 265.442L1173.05 251.033H1176.82V274.203H1174.46V260.627V258.346C1174.46 256.343 1174.51 254.87 1174.61 253.929H1174.5C1174.33 254.943 1173.97 256.488 1173.41 258.563L1172.87 260.591L1169.32 274.203H1166.75L1163.2 260.591L1162.66 258.563C1162.11 256.488 1161.74 254.943 1161.58 253.929H1161.47C1161.56 254.87 1161.61 256.343 1161.61 258.346V260.627V274.203H1159.26V251.033ZM1187.97 274.638C1185.56 274.638 1183.66 273.672 1182.29 271.741C1180.91 269.81 1180.22 267.156 1180.22 263.777V251.033H1182.98V263.777C1182.98 266.407 1183.42 268.471 1184.32 269.967C1185.21 271.464 1186.43 272.212 1187.97 272.212C1189.52 272.212 1190.74 271.464 1191.63 269.967C1192.52 268.471 1192.97 266.407 1192.97 263.777V251.033H1195.72V263.777C1195.72 267.156 1195.03 269.81 1193.66 271.741C1192.28 273.672 1190.39 274.638 1187.97 274.638ZM1201.55 251.033H1204.34V271.995H1216.29V274.203H1201.55V251.033ZM1226.43 253.241H1219.4V251.033H1236.2V253.241H1229.18V274.203H1226.43V253.241ZM1240.12 271.995H1246.34V253.241H1240.12V251.033H1255.32V253.241H1249.1V271.995H1255.32V274.203H1240.12V271.995ZM1261.48 251.033H1276.22V253.314H1264.23V260.265H1273.94V262.473H1264.23V274.203H1261.48V251.033ZM1287.55 274.638C1285.91 274.638 1284.46 274.155 1283.21 273.189C1281.98 272.2 1281.01 270.8 1280.31 268.99C1279.64 267.18 1279.3 265.056 1279.3 262.618C1279.3 260.18 1279.64 258.056 1280.31 256.246C1281.01 254.436 1281.98 253.048 1283.21 252.083C1284.46 251.093 1285.91 250.598 1287.55 250.598C1289.19 250.598 1290.63 251.093 1291.86 252.083C1293.12 253.048 1294.08 254.436 1294.76 256.246C1295.46 258.056 1295.81 260.18 1295.81 262.618C1295.81 265.056 1295.46 267.18 1294.76 268.99C1294.08 270.8 1293.12 272.2 1291.86 273.189C1290.63 274.155 1289.19 274.638 1287.55 274.638ZM1282.05 262.618C1282.05 264.621 1282.29 266.347 1282.77 267.795C1283.26 269.243 1283.91 270.341 1284.73 271.09C1285.55 271.838 1286.49 272.212 1287.55 272.212C1288.61 272.212 1289.56 271.838 1290.38 271.09C1291.2 270.341 1291.85 269.243 1292.33 267.795C1292.81 266.347 1293.06 264.621 1293.06 262.618C1293.06 260.615 1292.81 258.889 1292.33 257.441C1291.85 255.993 1291.2 254.895 1290.38 254.146C1289.56 253.398 1288.61 253.024 1287.55 253.024C1286.49 253.024 1285.55 253.398 1284.73 254.146C1283.91 254.895 1283.26 255.993 1282.77 257.441C1282.29 258.889 1282.05 260.615 1282.05 262.618ZM1300.77 251.033H1309.21C1311.26 251.033 1312.89 251.516 1314.09 252.481C1315.32 253.446 1315.94 254.75 1315.94 256.391C1315.94 257.912 1315.37 259.13 1314.24 260.048C1313.13 260.941 1311.68 261.399 1309.89 261.423V261.532C1310.71 261.749 1311.4 262.135 1311.96 262.69C1312.51 263.221 1313.04 264.102 1313.55 265.333L1317.24 274.203H1314.31L1310.91 265.768C1310.35 264.368 1309.71 263.439 1308.99 262.98C1308.29 262.521 1307.37 262.292 1306.24 262.292H1303.52V274.203H1300.77V251.033ZM1308.88 260.265C1310.26 260.265 1311.33 259.951 1312.1 259.323C1312.88 258.696 1313.26 257.815 1313.26 256.681C1313.26 255.643 1312.86 254.81 1312.07 254.183C1311.29 253.555 1310.24 253.241 1308.92 253.241H1303.52V260.265H1308.88ZM1318.59 251.033H1322.35L1326.08 265.442C1326.83 268.362 1327.24 270.571 1327.31 272.067H1327.42C1327.49 270.571 1327.9 268.362 1328.65 265.442L1332.38 251.033H1336.15V274.203H1333.79V260.627V258.346C1333.79 256.343 1333.84 254.87 1333.94 253.929H1333.83C1333.66 254.943 1333.3 256.488 1332.74 258.563L1332.2 260.591L1328.65 274.203H1326.08L1322.53 260.591L1321.99 258.563C1321.44 256.488 1321.07 254.943 1320.9 253.929H1320.8C1320.89 254.87 1320.94 256.343 1320.94 258.346V260.627V274.203H1318.59V251.033ZM1345.27 251.033H1349.36L1356.53 274.203H1353.67L1350.74 264.863H1343.86L1340.97 274.203H1338.07L1345.27 251.033ZM1350.23 262.654C1349.12 259.155 1348.38 256.753 1347.99 255.45C1347.63 254.122 1347.42 253.145 1347.37 252.517H1347.26C1347.19 253.193 1346.96 254.207 1346.58 255.558C1346.19 256.91 1345.45 259.275 1344.37 262.654H1350.23ZM1365.84 253.241H1358.82V251.033H1375.62V253.241H1368.59V274.203H1365.84V253.241Z" fill="#FF4D9A"/>
<path d="M1971.29 274.638C1968.88 274.638 1966.98 273.672 1965.61 271.741C1964.23 269.81 1963.54 267.156 1963.54 263.777V251.033H1966.29V263.777C1966.29 266.407 1966.74 268.471 1967.63 269.967C1968.53 271.464 1969.74 272.212 1971.29 272.212C1972.83 272.212 1974.05 271.464 1974.95 269.967C1975.84 268.471 1976.29 266.407 1976.29 263.777V251.033H1979.04V263.777C1979.04 267.156 1978.35 269.81 1976.97 271.741C1975.6 273.672 1973.7 274.638 1971.29 274.638ZM1983.57 251.033H1986.93L1993.96 265.55C1994.61 266.902 1995.09 267.964 1995.41 268.736C1995.72 269.509 1996.03 270.39 1996.35 271.379H1996.46C1996.31 270.39 1996.23 269.436 1996.2 268.519C1996.18 267.578 1996.17 266.13 1996.17 264.175V251.033H1998.84V274.203H1995.44L1988.45 259.722C1987.8 258.37 1987.32 257.308 1987.01 256.536C1986.69 255.763 1986.39 254.87 1986.1 253.857H1985.99C1986.11 254.846 1986.19 255.812 1986.21 256.753C1986.23 257.67 1986.25 259.106 1986.25 261.061V274.203H1983.57V251.033ZM2003.92 251.033H2009.96C2011.77 251.033 2013.44 251.419 2014.96 252.191C2016.5 252.964 2017.75 254.207 2018.69 255.92C2019.65 257.634 2020.14 259.83 2020.14 262.509C2020.14 265.237 2019.65 267.481 2018.69 269.243C2017.75 270.981 2016.5 272.248 2014.96 273.045C2013.44 273.817 2011.77 274.203 2009.96 274.203H2003.92V251.033ZM2009.96 271.995C2011.39 271.995 2012.65 271.645 2013.76 270.945C2014.87 270.245 2015.76 269.183 2016.41 267.759C2017.06 266.335 2017.39 264.585 2017.39 262.509C2017.39 260.482 2017.06 258.78 2016.41 257.405C2015.76 256.005 2014.86 254.967 2013.73 254.291C2012.62 253.591 2011.36 253.241 2009.96 253.241H2006.71V271.995H2009.96ZM2024.7 251.033H2039.58V253.241H2027.45V260.265H2037.16V262.473H2027.45V271.995H2039.58V274.203H2024.7V251.033ZM2044.8 251.033H2059.53V253.314H2047.55V260.265H2057.25V262.473H2047.55V274.203H2044.8V251.033ZM2063.27 271.995H2069.49V253.241H2063.27V251.033H2078.47V253.241H2072.25V271.995H2078.47V274.203H2063.27V271.995ZM2083.15 251.033H2086.51L2093.54 265.55C2094.19 266.902 2094.67 267.964 2094.99 268.736C2095.3 269.509 2095.61 270.39 2095.93 271.379H2096.04C2095.89 270.39 2095.81 269.436 2095.78 268.519C2095.76 267.578 2095.75 266.13 2095.75 264.175V251.033H2098.43V274.203H2095.02L2088.04 259.722C2087.38 258.37 2086.9 257.308 2086.59 256.536C2086.27 255.763 2085.97 254.87 2085.68 253.857H2085.57C2085.69 254.846 2085.77 255.812 2085.79 256.753C2085.81 257.67 2085.83 259.106 2085.83 261.061V274.203H2083.15V251.033ZM2104.37 251.033H2119.25V253.241H2107.12V260.265H2116.82V262.473H2107.12V271.995H2119.25V274.203H2104.37V251.033ZM2123.41 251.033H2129.46C2131.27 251.033 2132.94 251.419 2134.46 252.191C2136 252.964 2137.24 254.207 2138.19 255.92C2139.15 257.634 2139.63 259.83 2139.63 262.509C2139.63 265.237 2139.15 267.481 2138.19 269.243C2137.24 270.981 2136 272.248 2134.46 273.045C2132.94 273.817 2131.27 274.203 2129.46 274.203H2123.41V251.033ZM2129.46 271.995C2130.88 271.995 2132.15 271.645 2133.26 270.945C2134.37 270.245 2135.25 269.183 2135.9 267.759C2136.56 266.335 2136.88 264.585 2136.88 262.509C2136.88 260.482 2136.56 258.78 2135.9 257.405C2135.25 256.005 2134.36 254.967 2133.23 254.291C2132.12 253.591 2130.86 253.241 2129.46 253.241H2126.2V271.995H2129.46Z" fill="#FF4D9A"/>
<path d="M2728.02 251.033H2742.9V253.241H2730.77V260.265H2740.47V262.473H2730.77V271.995H2742.9V274.203H2728.02V251.033ZM2751.41 264.139C2751.8 263.463 2752.12 262.956 2752.39 262.618C2752.68 262.256 2753.03 261.99 2753.44 261.822V261.713C2753 261.52 2752.63 261.242 2752.32 260.88C2752.03 260.518 2751.74 260.072 2751.45 259.541L2746.74 251.033H2749.64L2754.31 259.794L2758.94 251.033H2761.84L2757.13 259.541C2756.84 260.072 2756.54 260.518 2756.23 260.88C2755.94 261.242 2755.58 261.52 2755.14 261.713V261.822C2755.55 261.99 2755.89 262.256 2756.15 262.618C2756.44 262.956 2756.78 263.463 2757.17 264.139L2763.07 274.203H2759.99L2754.31 264.211L2748.59 274.203H2745.51L2751.41 264.139ZM2767.93 251.033H2777.16C2779.14 251.033 2780.7 251.516 2781.86 252.481C2783.05 253.422 2783.64 254.701 2783.64 256.319C2783.64 257.984 2783.05 259.311 2781.86 260.301C2780.7 261.291 2779.14 261.785 2777.16 261.785H2770.68V274.203H2767.93V251.033ZM2776.87 259.649C2778.12 259.649 2779.1 259.36 2779.8 258.78C2780.5 258.177 2780.85 257.356 2780.85 256.319C2780.85 255.353 2780.5 254.605 2779.8 254.074C2779.1 253.519 2778.12 253.241 2776.87 253.241H2770.68V259.649H2776.87ZM2787.41 251.033H2795.84C2797.89 251.033 2799.52 251.516 2800.73 252.481C2801.96 253.446 2802.58 254.75 2802.58 256.391C2802.58 257.912 2802.01 259.13 2800.87 260.048C2799.76 260.941 2798.32 261.399 2796.53 261.423V261.532C2797.35 261.749 2798.04 262.135 2798.59 262.69C2799.15 263.221 2799.68 264.102 2800.19 265.333L2803.88 274.203H2800.95L2797.54 265.768C2796.99 264.368 2796.35 263.439 2795.62 262.98C2794.93 262.521 2794.01 262.292 2792.87 262.292H2790.16V274.203H2787.41V251.033ZM2795.52 260.265C2796.89 260.265 2797.97 259.951 2798.74 259.323C2799.51 258.696 2799.9 257.815 2799.9 256.681C2799.9 255.643 2799.5 254.81 2798.7 254.183C2797.93 253.555 2796.88 253.241 2795.55 253.241H2790.16V260.265H2795.52ZM2807.69 251.033H2822.56V253.241H2810.44V260.265H2820.14V262.473H2810.44V271.995H2822.56V274.203H2807.69V251.033ZM2835.49 274.638C2833.44 274.638 2831.52 273.998 2829.74 272.719C2827.95 271.415 2826.56 269.485 2825.57 266.926L2827.78 265.659C2828.75 267.855 2829.88 269.497 2831.19 270.583C2832.51 271.645 2833.92 272.176 2835.42 272.176C2836.56 272.176 2837.51 271.874 2838.28 271.271C2839.05 270.667 2839.44 269.726 2839.44 268.447C2839.44 267.674 2839.25 267.011 2838.86 266.456C2838.47 265.9 2837.94 265.394 2837.27 264.935C2836.59 264.476 2835.55 263.849 2834.15 263.052C2832.63 262.184 2831.44 261.447 2830.57 260.844C2829.73 260.216 2829.06 259.529 2828.58 258.78C2828.1 258.008 2827.85 257.103 2827.85 256.065C2827.85 254.472 2828.43 253.169 2829.59 252.155C2830.78 251.117 2832.3 250.598 2834.15 250.598C2835.31 250.598 2836.42 250.792 2837.48 251.178C2838.57 251.564 2839.8 252.179 2841.18 253.024L2839.95 255.269C2838.72 254.52 2837.65 253.965 2836.76 253.603C2835.89 253.241 2835.05 253.06 2834.23 253.06C2833.14 253.06 2832.26 253.35 2831.58 253.929C2830.93 254.484 2830.61 255.208 2830.61 256.101C2830.61 256.777 2830.79 257.368 2831.15 257.875C2831.54 258.382 2832.04 258.841 2832.67 259.251C2833.32 259.661 2834.41 260.313 2835.93 261.206C2837.45 262.051 2838.63 262.787 2839.48 263.414C2840.32 264.018 2840.98 264.73 2841.47 265.55C2841.95 266.347 2842.19 267.312 2842.19 268.447C2842.19 270.353 2841.56 271.862 2840.31 272.972C2839.05 274.082 2837.45 274.638 2835.49 274.638ZM2855.41 274.638C2853.36 274.638 2851.44 273.998 2849.65 272.719C2847.87 271.415 2846.48 269.485 2845.49 266.926L2847.7 265.659C2848.66 267.855 2849.8 269.497 2851.1 270.583C2852.43 271.645 2853.84 272.176 2855.34 272.176C2856.47 272.176 2857.43 271.874 2858.2 271.271C2858.97 270.667 2859.36 269.726 2859.36 268.447C2859.36 267.674 2859.16 267.011 2858.78 266.456C2858.39 265.9 2857.86 265.394 2857.18 264.935C2856.51 264.476 2855.47 263.849 2854.07 263.052C2852.55 262.184 2851.35 261.447 2850.49 260.844C2849.64 260.216 2848.98 259.529 2848.49 258.78C2848.01 258.008 2847.77 257.103 2847.77 256.065C2847.77 254.472 2848.35 253.169 2849.51 252.155C2850.69 251.117 2852.21 250.598 2854.07 250.598C2855.23 250.598 2856.34 250.792 2857.4 251.178C2858.49 251.564 2859.72 252.179 2861.09 253.024L2859.86 255.269C2858.63 254.52 2857.57 253.965 2856.68 253.603C2855.81 253.241 2854.96 253.06 2854.14 253.06C2853.06 253.06 2852.18 253.35 2851.5 253.929C2850.85 254.484 2850.52 255.208 2850.52 256.101C2850.52 256.777 2850.7 257.368 2851.07 257.875C2851.45 258.382 2851.96 258.841 2852.59 259.251C2853.24 259.661 2854.32 260.313 2855.84 261.206C2857.36 262.051 2858.55 262.787 2859.39 263.414C2860.24 264.018 2860.9 264.73 2861.38 265.55C2861.87 266.347 2862.11 267.312 2862.11 268.447C2862.11 270.353 2861.48 271.862 2860.22 272.972C2858.97 274.082 2857.36 274.638 2855.41 274.638ZM2866.17 271.995H2872.39V253.241H2866.17V251.033H2881.37V253.241H2875.14V271.995H2881.37V274.203H2866.17V271.995ZM2893.69 274.638C2892.04 274.638 2890.6 274.155 2889.34 273.189C2888.11 272.2 2887.14 270.8 2886.44 268.99C2885.77 267.18 2885.43 265.056 2885.43 262.618C2885.43 260.18 2885.77 258.056 2886.44 256.246C2887.14 254.436 2888.11 253.048 2889.34 252.083C2890.6 251.093 2892.04 250.598 2893.69 250.598C2895.33 250.598 2896.76 251.093 2897.99 252.083C2899.25 253.048 2900.21 254.436 2900.89 256.246C2901.59 258.056 2901.94 260.18 2901.94 262.618C2901.94 265.056 2901.59 267.18 2900.89 268.99C2900.21 270.8 2899.25 272.2 2897.99 273.189C2896.76 274.155 2895.33 274.638 2893.69 274.638ZM2888.18 262.618C2888.18 264.621 2888.42 266.347 2888.91 267.795C2889.39 269.243 2890.04 270.341 2890.86 271.09C2891.68 271.838 2892.62 272.212 2893.69 272.212C2894.75 272.212 2895.69 271.838 2896.51 271.09C2897.33 270.341 2897.98 269.243 2898.46 267.795C2898.95 266.347 2899.19 264.621 2899.19 262.618C2899.19 260.615 2898.95 258.889 2898.46 257.441C2897.98 255.993 2897.33 254.895 2896.51 254.146C2895.69 253.398 2894.75 253.024 2893.69 253.024C2892.62 253.024 2891.68 253.398 2890.86 254.146C2890.04 254.895 2889.39 255.993 2888.91 257.441C2888.42 258.889 2888.18 260.615 2888.18 262.618ZM2905.96 251.033H2909.33L2916.35 265.55C2917 266.902 2917.49 267.964 2917.8 268.736C2918.11 269.509 2918.43 270.39 2918.74 271.379H2918.85C2918.71 270.39 2918.62 269.436 2918.6 268.519C2918.57 267.578 2918.56 266.13 2918.56 264.175V251.033H2921.24V274.203H2917.84L2910.85 259.722C2910.2 258.37 2909.72 257.308 2909.4 256.536C2909.09 255.763 2908.79 254.87 2908.5 253.857H2908.39C2908.51 254.846 2908.58 255.812 2908.61 256.753C2908.63 257.67 2908.64 259.106 2908.64 261.061V274.203H2905.96V251.033ZM2947.21 278.837H2952.89V252.191H2947.21V250.309H2955.24V280.72H2947.21V278.837Z" fill="#FF4D9A"/>
<path d="M82.8698 318.828V246.062H100.625C100.625 250.816 98.6842 255.862 94.8034 261.198H103.972C105.233 255.765 107.513 251.544 110.812 248.536C114.111 245.432 118.331 243.879 123.473 243.879C128.227 243.879 132.35 245.383 135.843 248.391C139.433 251.399 141.713 255.667 142.683 261.198H149.523C151.27 255.667 153.986 251.399 157.673 248.391C161.36 245.383 165.58 243.879 170.334 243.879C177.32 243.879 182.995 246.305 187.361 251.156C191.824 255.91 194.056 262.702 194.056 271.53V318.828H173.39V274.587C173.39 265.467 169.607 260.907 162.039 260.907C159.128 261.004 156.703 261.634 154.762 262.799C152.822 263.963 151.415 265.661 150.542 267.892C149.766 270.027 149.232 272.113 148.941 274.15C148.747 276.187 148.65 278.71 148.65 281.718V318.828H128.276V274.587C128.276 265.467 124.492 260.907 116.924 260.907C114.014 261.004 111.588 261.634 109.648 262.799C107.707 263.963 106.3 265.661 105.427 267.892C104.651 270.027 104.117 272.113 103.826 274.15C103.632 276.187 103.535 278.71 103.535 281.718V318.828H82.8698ZM201.982 274.878C201.982 266.34 202.709 258.287 204.165 250.719C205.717 243.055 207.997 236.021 211.005 229.617C214.109 223.117 218.33 217.878 223.666 213.9C229.099 209.922 235.308 207.788 242.294 207.497V225.251C234.047 226.804 228.42 232.091 225.412 241.114C222.405 250.04 220.901 261.295 220.901 274.878C220.901 288.364 222.405 299.618 225.412 308.641C228.42 317.664 234.047 322.952 242.294 324.504V342.113C235.308 341.434 229.147 339.106 223.811 335.128C218.475 331.15 214.255 325.959 211.15 319.556C208.045 313.249 205.717 306.361 204.165 298.89C202.709 291.323 201.982 283.318 201.982 274.878ZM249.534 295.107V246.062H270.199V290.304C270.199 299.424 273.838 303.984 281.114 303.984C285.965 303.984 289.604 302.043 292.029 298.163C294.455 294.282 295.667 288.897 295.667 282.009V246.062H316.333V318.828H297.123C297.22 314.268 299.548 308.689 304.108 302.092H295.231C293.193 307.913 290.186 312.57 286.208 316.063C282.327 319.459 277.67 321.157 272.237 321.157C265.348 321.157 259.818 318.828 255.646 314.171C251.571 309.417 249.534 303.062 249.534 295.107ZM322.71 318.828L350.507 280.99L323.874 246.062H348.906L353.126 252.029C356.619 256.977 358.268 264.593 358.074 274.878H365.787C365.787 266.922 368.407 259.306 373.646 252.029L378.012 246.062H400.569L373.937 281.281L402.607 318.828H377.284L371.754 310.824C368.067 305.682 366.321 298.066 366.515 287.975H358.802C358.802 295.058 356.134 302.48 350.798 310.242L344.976 318.828H322.71ZM442.725 274.732C442.725 283.27 441.949 291.371 440.396 299.036C438.941 306.603 436.661 313.589 433.556 319.992C430.549 326.493 426.328 331.732 420.895 335.71C415.559 339.688 409.398 341.822 402.412 342.113V324.358C410.659 322.806 416.286 317.518 419.294 308.495C422.302 299.569 423.806 288.315 423.806 274.732C423.806 261.246 422.302 250.04 419.294 241.114C416.286 231.994 410.659 226.658 402.412 225.106V207.497C409.398 208.176 415.559 210.504 420.895 214.482C426.231 218.46 430.452 223.651 433.556 230.054C436.661 236.36 438.941 243.297 440.396 250.865C441.949 258.336 442.725 266.291 442.725 274.732Z" fill="#FF4D9A"/>
<path d="M297.721 352.538L265.187 352.538C265.099 352.538 265.014 352.511 264.941 352.462C264.869 352.413 264.813 352.343 264.78 352.262C264.747 352.181 264.738 352.092 264.756 352.006C264.773 351.92 264.816 351.841 264.878 351.779L282.059 334.942C282.123 334.881 282.167 334.8 282.184 334.713C282.202 334.625 282.192 334.535 282.157 334.453C282.121 334.371 282.062 334.302 281.986 334.255C281.91 334.208 281.822 334.185 281.733 334.189L265.637 334.633C265.58 334.634 265.524 334.645 265.472 334.667C265.42 334.69 265.373 334.722 265.333 334.763L242.067 357.476C242.024 357.518 241.989 357.568 241.966 357.624C241.942 357.679 241.93 357.739 241.93 357.799C241.93 357.86 241.942 357.919 241.966 357.975C241.989 358.03 242.024 358.081 242.067 358.123L265.209 381.41C265.253 381.452 265.305 381.486 265.362 381.508C265.419 381.53 265.48 381.541 265.541 381.539L280.22 381.286C280.306 381.284 280.39 381.257 280.462 381.208C280.533 381.159 280.588 381.09 280.621 381.01C280.654 380.93 280.663 380.842 280.647 380.758C280.63 380.673 280.589 380.594 280.529 380.532L264.979 364.522C264.918 364.461 264.876 364.383 264.86 364.298C264.843 364.213 264.852 364.125 264.885 364.045C264.918 363.965 264.974 363.897 265.045 363.849C265.117 363.8 265.202 363.775 265.288 363.774L297.204 363.774C297.356 363.777 297.509 363.788 297.66 363.808C297.722 363.817 297.785 363.812 297.845 363.795C297.905 363.777 297.961 363.746 298.009 363.705C298.056 363.664 298.094 363.614 298.12 363.557C298.146 363.5 298.16 363.438 298.16 363.375L298.16 352.977C298.16 352.861 298.114 352.749 298.032 352.667C297.949 352.585 297.838 352.538 297.721 352.538Z" fill="#FF4D9A"/>
<path d="M408.544 362.964H441.079C441.166 362.964 441.252 362.991 441.324 363.04C441.397 363.089 441.453 363.159 441.486 363.24C441.519 363.321 441.527 363.41 441.51 363.496C441.493 363.582 441.45 363.661 441.388 363.723L424.207 380.559C424.143 380.621 424.099 380.702 424.081 380.789C424.064 380.877 424.074 380.967 424.109 381.049C424.145 381.131 424.204 381.2 424.28 381.247C424.356 381.294 424.444 381.317 424.533 381.313L440.629 380.869C440.685 380.868 440.741 380.857 440.794 380.835C440.846 380.812 440.893 380.78 440.932 380.739L464.199 358.026C464.242 357.984 464.277 357.934 464.3 357.878C464.324 357.823 464.336 357.763 464.336 357.703C464.336 357.642 464.324 357.583 464.3 357.527C464.277 357.472 464.242 357.421 464.199 357.379L441.056 334.092C441.012 334.05 440.96 334.016 440.903 333.994C440.846 333.972 440.785 333.961 440.724 333.963L426.046 334.216C425.959 334.218 425.875 334.245 425.804 334.294C425.733 334.343 425.677 334.412 425.644 334.492C425.612 334.572 425.603 334.659 425.619 334.744C425.635 334.829 425.676 334.908 425.737 334.97L441.287 350.98C441.348 351.041 441.389 351.119 441.406 351.204C441.423 351.289 441.414 351.377 441.381 351.457C441.348 351.537 441.292 351.605 441.22 351.653C441.148 351.701 441.064 351.727 440.977 351.728H409.062C408.909 351.725 408.757 351.714 408.606 351.694C408.544 351.685 408.481 351.69 408.42 351.707C408.36 351.725 408.305 351.755 408.257 351.797C408.21 351.838 408.172 351.888 408.145 351.945C408.119 352.002 408.106 352.064 408.105 352.127V362.525C408.105 362.641 408.152 362.753 408.234 362.835C408.316 362.917 408.428 362.964 408.544 362.964Z" fill="#FF4D9A"/>
<path d="M321.239 330.263L321.239 362.795C321.239 362.882 321.212 362.968 321.163 363.04C321.113 363.113 321.044 363.169 320.963 363.202C320.882 363.235 320.792 363.244 320.707 363.226C320.621 363.209 320.542 363.166 320.48 363.104L303.642 345.924C303.58 345.86 303.5 345.816 303.412 345.799C303.325 345.781 303.234 345.791 303.152 345.827C303.07 345.862 303.001 345.922 302.954 345.997C302.907 346.073 302.884 346.161 302.888 346.25L303.333 362.345C303.333 362.402 303.345 362.458 303.367 362.51C303.389 362.562 303.421 362.609 303.462 362.649L326.177 385.913C326.219 385.956 326.269 385.991 326.325 386.014C326.38 386.038 326.44 386.05 326.501 386.05C326.561 386.05 326.621 386.038 326.676 386.014C326.732 385.991 326.782 385.956 326.824 385.913L350.113 362.772C350.155 362.729 350.189 362.677 350.211 362.62C350.233 362.563 350.244 362.502 350.242 362.441L349.989 347.763C349.987 347.677 349.96 347.593 349.911 347.521C349.862 347.45 349.793 347.395 349.713 347.362C349.633 347.329 349.546 347.32 349.461 347.336C349.376 347.353 349.297 347.394 349.235 347.454L333.224 363.003C333.163 363.064 333.085 363.105 333 363.122C332.915 363.139 332.827 363.13 332.747 363.097C332.667 363.064 332.599 363.008 332.55 362.936C332.502 362.865 332.476 362.78 332.476 362.694L332.476 330.78C332.479 330.628 332.49 330.476 332.51 330.325C332.519 330.263 332.514 330.199 332.496 330.139C332.479 330.079 332.448 330.023 332.407 329.976C332.366 329.928 332.315 329.89 332.258 329.864C332.201 329.838 332.139 329.824 332.077 329.824L321.678 329.824C321.562 329.824 321.45 329.87 321.368 329.953C321.286 330.035 321.239 330.147 321.239 330.263Z" fill="#FF4D9A"/>
<path d="M384.706 385.239L384.706 352.707C384.707 352.62 384.733 352.534 384.783 352.462C384.832 352.389 384.902 352.333 384.983 352.3C385.064 352.267 385.153 352.258 385.239 352.276C385.325 352.293 385.403 352.336 385.465 352.398L402.303 369.578C402.365 369.642 402.445 369.686 402.533 369.703C402.62 369.72 402.711 369.711 402.793 369.675C402.875 369.64 402.944 369.58 402.991 369.505C403.038 369.429 403.061 369.341 403.057 369.251L402.613 353.157C402.612 353.1 402.601 353.044 402.578 352.992C402.556 352.94 402.524 352.893 402.483 352.853L379.768 329.589C379.726 329.546 379.676 329.511 379.62 329.488C379.565 329.464 379.505 329.452 379.445 329.452C379.384 329.452 379.325 329.464 379.269 329.488C379.214 329.511 379.163 329.546 379.121 329.589L355.833 352.73C355.79 352.773 355.756 352.825 355.734 352.882C355.712 352.939 355.702 353 355.703 353.061L355.956 367.739C355.958 367.825 355.985 367.909 356.034 367.981C356.083 368.052 356.152 368.107 356.232 368.14C356.312 368.173 356.4 368.182 356.485 368.165C356.57 368.149 356.648 368.108 356.71 368.048L372.721 352.499C372.783 352.438 372.861 352.397 372.946 352.38C373.03 352.363 373.118 352.372 373.198 352.405C373.278 352.438 373.347 352.494 373.395 352.566C373.443 352.637 373.469 352.722 373.469 352.808L373.469 384.722C373.467 384.874 373.455 385.026 373.436 385.177C373.427 385.239 373.431 385.303 373.449 385.363C373.467 385.423 373.497 385.479 373.538 385.526C373.579 385.574 373.63 385.612 373.687 385.638C373.744 385.664 373.806 385.678 373.869 385.678L384.267 385.678C384.384 385.678 384.495 385.632 384.578 385.549C384.66 385.467 384.706 385.355 384.706 385.239Z" fill="#FF4D9A"/>
</svg>
