<svg width="3113" height="3690" viewBox="0 0 3113 3690" fill="none" xmlns="http://www.w3.org/2000/svg">
<rect x="4" y="4" width="3105" height="3682" fill="white"/>
<rect x="4" y="4" width="3105" height="3682" stroke="#FF4D9A" stroke-width="8"/>
<rect x="8" y="8" width="3097" height="133" fill="#FF4D9A"/>
<circle cx="108.499" cy="76.7256" r="35.8311" fill="#F8F851"/>
<circle cx="213.058" cy="76.7256" r="35.8311" fill="#F8F851"/>
<circle cx="317.612" cy="76.7256" r="35.8311" fill="#F8F851"/>
<path d="M92.8312 898V535.181H356.134V582.866H144.662V697.931H311.041V745.616H144.662V898H92.8312ZM331.684 898V640.917H378.851C378.851 661.304 369.694 685.837 351.38 714.517H379.369C392.5 663.032 420.834 637.289 464.372 637.289C473.011 637.289 481.131 638.153 488.733 639.88V690.157C477.676 688.429 468.519 687.565 461.262 687.565C407.358 687.565 380.406 719.528 380.406 783.453V898H331.684ZM482.801 831.656C482.801 799.175 497.659 775.16 527.375 759.611C556.747 743.716 595.793 733.868 644.514 730.067V722.292C644.514 690.502 626.546 674.607 590.61 674.607C555.364 674.607 532.904 690.157 523.229 721.255L477.617 705.706C482.801 685.665 495.24 668.733 514.936 654.911C534.632 640.744 559.856 633.661 590.61 633.661C624.127 633.661 649.524 641.608 666.802 657.503C684.424 673.052 693.235 695.167 693.235 723.847V841.504C693.235 847.378 694.272 851.352 696.345 853.425C698.419 855.153 702.392 856.017 708.267 856.017H734.7V898H713.45C694.099 898 680.969 894.199 674.058 886.597C667.493 878.995 664.21 864.828 664.21 844.096H644.514C639.331 862.755 629.829 877.613 616.007 888.67C602.531 899.728 585.426 905.256 564.694 905.256C539.469 905.256 519.428 898.691 504.57 885.561C490.057 872.43 482.801 854.462 482.801 831.656ZM644.514 791.746V765.312C570.223 772.568 533.077 793.301 533.077 827.51C533.077 839.258 536.878 848.588 544.48 855.498C552.427 862.064 563.83 865.346 578.688 865.346C597.002 865.346 612.551 858.954 625.337 846.169C638.122 833.384 644.514 815.243 644.514 791.746ZM744.532 898V640.917H791.18C791.18 655.43 782.887 675.298 766.301 700.523H792.735C797.918 683.246 807.766 667.869 822.279 654.393C836.792 640.571 854.414 633.661 875.147 633.661C904.864 633.661 927.151 642.126 942.009 659.058C957.213 675.644 964.815 699.314 964.815 730.067V898H916.094V740.951C916.094 697.759 898.125 676.162 862.189 676.162C841.457 676.162 825.907 682.382 815.541 694.822C806.211 705.879 800.164 718.491 797.4 732.658C794.636 746.826 793.254 764.966 793.254 787.081V898H744.532ZM1200.15 898L1105.29 779.825L1058.65 823.363V898H1009.92V535.181H1058.65V682.9C1058.65 705.706 1056.92 722.119 1053.46 732.14C1050.01 742.161 1042.58 752.354 1031.18 762.72L1046.72 778.788L1189.78 640.917H1253.53L1139.5 747.689L1262.34 898H1200.15ZM1235.06 788.636L1288.44 775.678C1288.44 804.013 1292.42 825.091 1300.37 838.912C1308.31 852.389 1321.1 859.127 1338.72 859.127C1356.34 859.127 1369.13 852.734 1377.08 839.949C1385.37 826.818 1389.52 806.604 1389.52 779.306V535.181H1441.35V780.861C1441.35 863.791 1407.31 905.256 1339.24 905.256C1306.41 905.256 1281.02 895.063 1263.05 874.676C1245.08 853.943 1235.75 825.263 1235.06 788.636ZM1472.49 831.656C1472.49 799.175 1487.35 775.16 1517.07 759.611C1546.44 743.716 1585.49 733.868 1634.21 730.067V722.292C1634.21 690.502 1616.24 674.607 1580.3 674.607C1545.06 674.607 1522.6 690.157 1512.92 721.255L1467.31 705.706C1472.49 685.665 1484.93 668.733 1504.63 654.911C1524.33 640.744 1549.55 633.661 1580.3 633.661C1613.82 633.661 1639.22 641.608 1656.49 657.503C1674.12 673.052 1682.93 695.167 1682.93 723.847V841.504C1682.93 847.378 1683.97 851.352 1686.04 853.425C1688.11 855.153 1692.09 856.017 1697.96 856.017H1724.39V898H1703.14C1683.79 898 1670.66 894.199 1663.75 886.597C1657.19 878.995 1653.9 864.828 1653.9 844.096H1634.21C1629.02 862.755 1619.52 877.613 1605.7 888.67C1592.22 899.728 1575.12 905.256 1554.39 905.256C1529.16 905.256 1509.12 898.691 1494.26 885.561C1479.75 872.43 1472.49 854.462 1472.49 831.656ZM1634.21 791.746V765.312C1559.92 772.568 1522.77 793.301 1522.77 827.51C1522.77 839.258 1526.57 848.588 1534.17 855.498C1542.12 862.064 1553.52 865.346 1568.38 865.346C1586.7 865.346 1602.24 858.954 1615.03 846.169C1627.81 833.384 1634.21 815.243 1634.21 791.746ZM1788.2 898L1700.61 640.917H1751.92L1796.5 781.898C1803.75 804.704 1807.55 831.656 1807.9 862.755H1829.67C1831.05 829.583 1834.85 802.631 1841.07 781.898L1883.57 640.917H1933.33L1848.85 898H1788.2ZM1936.97 713.481C1936.28 660.958 1952.87 616.729 1986.73 580.793C2020.94 544.511 2063.61 526.888 2114.75 527.925C2156.56 527.925 2191.29 538.464 2218.93 559.542C2246.92 580.274 2265.24 605.499 2273.87 635.216L2222.04 653.875C2215.48 632.797 2203.56 614.483 2186.28 598.934C2170.04 583.039 2146.2 575.091 2114.75 575.091C2077.78 575.091 2048.06 587.531 2025.6 612.41C2003.49 636.943 1992.43 670.461 1992.43 712.962C1992.43 756.501 2003.66 791.573 2026.12 818.18C2048.58 844.441 2078.12 857.572 2114.75 857.572C2144.47 857.572 2167.79 850.661 2184.72 836.839C2202 822.672 2215.13 802.285 2224.12 775.678L2274.39 794.856C2265.06 827.337 2246.4 853.943 2218.41 874.676C2190.77 895.063 2156.22 905.256 2114.75 905.256C2060.85 905.947 2017.48 887.979 1984.66 851.352C1952.17 814.379 1936.28 768.422 1936.97 713.481ZM2279.75 770.495C2279.75 729.376 2290.63 696.376 2312.4 671.497C2334.17 646.273 2362.16 633.661 2396.37 633.661C2430.57 633.661 2458.22 645.582 2479.3 669.424C2500.37 693.267 2510.91 723.674 2510.91 760.647C2510.91 767.212 2510.39 774.296 2509.36 781.898H2328.47C2329.5 809.541 2336.41 830.274 2349.2 844.096C2362.33 857.572 2379.09 864.31 2399.48 864.31C2430.23 864.31 2452.69 847.896 2466.86 815.07L2511.43 831.138C2502.45 854.98 2488.11 873.294 2468.41 886.079C2449.06 898.864 2425.74 905.256 2398.44 905.256C2362.16 905.256 2333.3 893.508 2311.88 870.011C2290.46 846.169 2279.75 812.997 2279.75 770.495ZM2329.5 743.025H2460.12C2459.77 721.255 2453.55 704.151 2441.46 691.712C2429.36 678.927 2414.33 672.534 2396.37 672.534C2378.74 672.534 2363.71 678.927 2351.27 691.712C2338.83 704.497 2331.58 721.601 2329.5 743.025ZM2522.36 770.495C2522.36 729.376 2533.24 696.376 2555.01 671.497C2576.78 646.273 2604.77 633.661 2638.98 633.661C2673.19 633.661 2700.83 645.582 2721.91 669.424C2742.99 693.267 2753.53 723.674 2753.53 760.647C2753.53 767.212 2753.01 774.296 2751.97 781.898H2571.08C2572.12 809.541 2579.03 830.274 2591.81 844.096C2604.94 857.572 2621.7 864.31 2642.09 864.31C2672.84 864.31 2695.3 847.896 2709.47 815.07L2754.05 831.138C2745.06 854.98 2730.72 873.294 2711.03 886.079C2691.68 898.864 2668.35 905.256 2641.05 905.256C2604.77 905.256 2575.92 893.508 2554.5 870.011C2533.07 846.169 2522.36 812.997 2522.36 770.495ZM2572.12 743.025H2702.73C2702.39 721.255 2696.17 704.151 2684.07 691.712C2671.98 678.927 2656.95 672.534 2638.98 672.534C2621.36 672.534 2606.33 678.927 2593.89 691.712C2581.45 704.497 2574.19 721.601 2572.12 743.025ZM380.312 1318V955.181H467.389L548.246 1163.02C557.921 1187.9 563.449 1219.87 564.832 1258.91H586.601C587.292 1236.8 588.501 1219.69 590.229 1207.6C592.993 1193.43 597.313 1178.57 603.187 1163.02L681.97 955.181H766.974V1318H715.661V1129.85C715.661 1083.2 723.954 1039.84 740.54 999.756L718.77 991.463L592.821 1318H556.02L428.515 991.463L406.746 999.756C423.678 1039.15 432.144 1082.51 432.144 1129.85V1318H380.312ZM797.898 1190.5C797.898 1149.38 808.783 1116.38 830.552 1091.5C852.321 1066.27 880.31 1053.66 914.518 1053.66C948.727 1053.66 976.37 1065.58 997.448 1089.42C1018.53 1113.27 1029.07 1143.67 1029.07 1180.65C1029.07 1187.21 1028.55 1194.3 1027.51 1201.9H846.62C847.656 1229.54 854.567 1250.27 867.352 1264.1C880.483 1277.57 897.241 1284.31 917.628 1284.31C948.382 1284.31 970.842 1267.9 985.009 1235.07L1029.58 1251.14C1020.6 1274.98 1006.26 1293.29 986.564 1306.08C967.214 1318.86 943.89 1325.26 916.592 1325.26C880.31 1325.26 851.457 1313.51 830.034 1290.01C808.61 1266.17 797.898 1233 797.898 1190.5ZM847.656 1163.02H978.271C977.925 1141.26 971.706 1124.15 959.612 1111.71C947.518 1098.93 932.487 1092.53 914.518 1092.53C896.896 1092.53 881.865 1098.93 869.425 1111.71C856.986 1124.5 849.729 1141.6 847.656 1163.02ZM1059.69 1318V1060.92H1106.86C1106.86 1081.3 1097.7 1105.84 1079.39 1134.52H1107.38C1120.51 1083.03 1148.84 1057.29 1192.38 1057.29C1201.02 1057.29 1209.14 1058.15 1216.74 1059.88V1110.16C1205.68 1108.43 1196.52 1107.57 1189.27 1107.57C1135.36 1107.57 1108.41 1139.53 1108.41 1203.45V1318H1059.69ZM1204.17 1190.5C1204.17 1149.38 1215.05 1116.38 1236.82 1091.5C1258.59 1066.27 1286.58 1053.66 1320.79 1053.66C1354.99 1053.66 1382.64 1065.58 1403.72 1089.42C1424.79 1113.27 1435.33 1143.67 1435.33 1180.65C1435.33 1187.21 1434.82 1194.3 1433.78 1201.9H1252.89C1253.92 1229.54 1260.83 1250.27 1273.62 1264.1C1286.75 1277.57 1303.51 1284.31 1323.9 1284.31C1354.65 1284.31 1377.11 1267.9 1391.28 1235.07L1435.85 1251.14C1426.87 1274.98 1412.53 1293.29 1392.83 1306.08C1373.48 1318.86 1350.16 1325.26 1322.86 1325.26C1286.58 1325.26 1257.72 1313.51 1236.3 1290.01C1214.88 1266.17 1204.17 1233 1204.17 1190.5ZM1253.92 1163.02H1384.54C1384.19 1141.26 1377.97 1124.15 1365.88 1111.71C1353.79 1098.93 1338.75 1092.53 1320.79 1092.53C1303.16 1092.53 1288.13 1098.93 1275.69 1111.71C1263.25 1124.5 1256 1141.6 1253.92 1163.02ZM1571.11 1318V955.181H1649.9L1840.64 1255.28L1859.3 1242.33C1849.62 1227.81 1843.06 1214.16 1839.6 1201.38C1836.49 1188.25 1834.94 1170.11 1834.94 1146.96V955.181H1886.77V1318H1821.98L1619.84 998.72L1601.18 1010.64C1615.69 1038.28 1622.95 1073.36 1622.95 1115.86V1318H1571.11ZM1951.54 1286.38C1928.04 1260.47 1916.29 1228.16 1916.29 1189.46C1916.29 1150.76 1927.87 1118.45 1951.02 1092.53C1974.17 1066.62 2003.37 1053.66 2038.62 1053.66C2073.86 1053.66 2102.89 1066.62 2125.69 1092.53C2148.84 1118.45 2160.42 1150.76 2160.42 1189.46C2160.42 1228.16 2148.84 1260.47 2125.69 1286.38C2102.54 1312.3 2073.52 1325.26 2038.62 1325.26C2004.06 1325.26 1975.04 1312.3 1951.54 1286.38ZM2110.14 1190.5C2110.14 1159.74 2103.58 1136.25 2090.45 1120C2077.66 1103.76 2060.39 1095.64 2038.62 1095.64C2016.5 1095.64 1999.05 1103.76 1986.27 1120C1973.48 1136.25 1967.09 1159.74 1967.09 1190.5C1967.09 1220.56 1973.31 1243.54 1985.75 1259.43C1998.53 1275.33 2016.16 1283.27 2038.62 1283.27C2060.73 1283.27 2078.18 1275.33 2090.97 1259.43C2103.75 1243.19 2110.14 1220.21 2110.14 1190.5ZM2209.06 1254.77V1101.35H2150.5V1060.92H2209.06V980.579H2257.79V1060.92H2327.24V1101.35H2257.79V1250.62C2257.79 1267.55 2266.25 1276.02 2283.18 1276.02H2337.09V1318H2273.34C2230.49 1318 2209.06 1296.92 2209.06 1254.77ZM2353.86 1013.23V955.181H2405.7V1013.23H2353.86ZM2355.94 1318V1060.92H2404.66V1318H2355.94ZM2452.78 1318V955.181H2501.5V1318H2452.78ZM2530.44 1188.94C2530.44 1148.51 2540.29 1115.86 2559.98 1090.98C2579.68 1066.1 2604.73 1053.66 2635.14 1053.66C2675.91 1053.66 2703.55 1074.57 2718.07 1116.38H2746.57C2727.57 1089.77 2718.07 1055.91 2718.07 1014.79V955.181H2766.79V1318H2722.73C2722.73 1302.8 2730.51 1284.31 2746.06 1262.54H2718.59C2710.64 1281.55 2700.44 1296.75 2688.01 1308.15C2675.91 1319.55 2658.29 1325.26 2635.14 1325.26C2604.73 1325.26 2579.68 1312.82 2559.98 1287.94C2540.29 1263.06 2530.44 1230.06 2530.44 1188.94ZM2700.96 1259.43C2714.09 1242.84 2720.66 1219.35 2720.66 1188.94C2720.66 1158.53 2714.27 1135.38 2701.48 1119.49C2688.7 1103.25 2671.42 1095.13 2649.65 1095.13C2604.04 1095.13 2581.23 1126.4 2581.23 1188.94C2581.23 1252.17 2604.04 1283.79 2649.65 1283.79C2671.07 1283.79 2688.18 1275.67 2700.96 1259.43ZM2796.34 1190.5C2796.34 1149.38 2807.22 1116.38 2828.99 1091.5C2850.76 1066.27 2878.75 1053.66 2912.96 1053.66C2947.17 1053.66 2974.81 1065.58 2995.89 1089.42C3016.97 1113.27 3027.5 1143.67 3027.5 1180.65C3027.5 1187.21 3026.99 1194.3 3025.95 1201.9H2845.06C2846.09 1229.54 2853.01 1250.27 2865.79 1264.1C2878.92 1277.57 2895.68 1284.31 2916.07 1284.31C2946.82 1284.31 2969.28 1267.9 2983.45 1235.07L3028.02 1251.14C3019.04 1274.98 3004.7 1293.29 2985 1306.08C2965.65 1318.86 2942.33 1325.26 2915.03 1325.26C2878.75 1325.26 2849.9 1313.51 2828.47 1290.01C2807.05 1266.17 2796.34 1233 2796.34 1190.5ZM2846.09 1163.02H2976.71C2976.36 1141.26 2970.14 1124.15 2958.05 1111.71C2945.96 1098.93 2930.93 1092.53 2912.96 1092.53C2895.33 1092.53 2880.3 1098.93 2867.86 1111.71C2855.42 1124.5 2848.17 1141.6 2846.09 1163.02ZM64.3241 1608.94C64.3241 1568.51 74.172 1535.86 93.8679 1510.98C113.564 1486.1 138.616 1473.66 169.023 1473.66C209.797 1473.66 237.44 1494.57 251.953 1536.38H280.46C261.456 1509.77 251.953 1475.91 251.953 1434.79V1375.18H300.675V1738H256.618C256.618 1722.8 264.393 1704.31 279.942 1682.54H252.471C244.524 1701.55 234.331 1716.75 221.891 1728.15C209.797 1739.55 192.174 1745.26 169.023 1745.26C138.616 1745.26 113.564 1732.82 93.8679 1707.94C74.172 1683.06 64.3241 1650.06 64.3241 1608.94ZM234.849 1679.43C247.979 1662.84 254.545 1639.35 254.545 1608.94C254.545 1578.53 248.152 1555.38 235.367 1539.49C222.582 1523.25 205.305 1515.13 183.536 1515.13C137.924 1515.13 115.119 1546.4 115.119 1608.94C115.119 1672.17 137.924 1703.79 183.536 1703.79C204.96 1703.79 222.064 1695.67 234.849 1679.43ZM330.222 1610.5C330.222 1569.38 341.107 1536.38 362.876 1511.5C384.645 1486.27 412.634 1473.66 446.843 1473.66C481.051 1473.66 508.695 1485.58 529.773 1509.42C550.851 1533.27 561.39 1563.67 561.39 1600.65C561.39 1607.21 560.871 1614.3 559.835 1621.9H378.944C379.98 1649.54 386.891 1670.27 399.676 1684.1C412.807 1697.57 429.566 1704.31 449.953 1704.31C480.706 1704.31 503.166 1687.9 517.333 1655.07L561.908 1671.14C552.924 1694.98 538.584 1713.29 518.888 1726.08C499.538 1738.86 476.214 1745.26 448.916 1745.26C412.634 1745.26 383.781 1733.51 362.358 1710.01C340.934 1686.17 330.222 1653 330.222 1610.5ZM379.98 1583.02H510.595C510.25 1561.26 504.03 1544.15 491.936 1531.71C479.842 1518.93 464.811 1512.53 446.843 1512.53C429.22 1512.53 414.189 1518.93 401.75 1531.71C389.31 1544.5 382.054 1561.6 379.98 1583.02ZM567.654 1671.66L613.784 1656.62C622.422 1689.11 644.883 1705.35 681.164 1705.35C717.792 1705.35 736.106 1693.43 736.106 1669.58C736.106 1650.58 720.729 1637.97 689.976 1631.75L658.877 1626.04C632.27 1620.52 612.056 1612.4 598.234 1601.68C584.758 1590.63 578.02 1574.04 578.02 1551.93C578.02 1529.12 587.35 1510.46 606.009 1495.95C624.668 1481.09 647.647 1473.66 674.945 1473.66C702.934 1473.66 725.739 1479.71 743.362 1491.8C761.33 1503.55 773.424 1519.27 779.644 1538.97L736.624 1555.55C726.258 1526.53 705.525 1512.02 674.426 1512.02C658.531 1512.02 646.265 1515.47 637.626 1522.38C628.988 1528.95 624.668 1537.07 624.668 1546.74C624.668 1555.73 627.606 1562.64 633.48 1567.48C639.354 1572.31 650.93 1576.46 668.207 1579.91L698.787 1586.13C720.902 1590.28 740.943 1598.4 758.911 1610.5C776.879 1622.24 785.864 1640.56 785.864 1665.44C785.864 1689.97 776.534 1709.49 757.875 1724.01C739.215 1738.17 713.473 1745.26 680.646 1745.26C652.312 1745.26 627.606 1738.69 606.527 1725.56C585.795 1712.43 572.837 1694.46 567.654 1671.66ZM832.176 1674.77V1521.35H773.606V1480.92H832.176V1400.58H880.897V1480.92H950.351V1521.35H880.897V1670.62C880.897 1687.55 889.363 1696.02 906.294 1696.02H960.199V1738H896.446C853.599 1738 832.176 1716.92 832.176 1674.77ZM979.048 1738V1480.92H1026.21C1026.21 1501.3 1017.06 1525.84 998.744 1554.52H1026.73C1039.86 1503.03 1068.2 1477.29 1111.74 1477.29C1120.37 1477.29 1128.5 1478.15 1136.1 1479.88V1530.16C1125.04 1528.43 1115.88 1527.57 1108.63 1527.57C1054.72 1527.57 1027.77 1559.53 1027.77 1623.45V1738H979.048ZM1130.16 1671.66C1130.16 1639.18 1145.02 1615.16 1174.74 1599.61C1204.11 1583.72 1243.16 1573.87 1291.88 1570.07V1562.29C1291.88 1530.5 1273.91 1514.61 1237.97 1514.61C1202.73 1514.61 1180.27 1530.16 1170.59 1561.26L1124.98 1545.71C1130.16 1525.66 1142.6 1508.73 1162.3 1494.91C1182 1480.74 1207.22 1473.66 1237.97 1473.66C1271.49 1473.66 1296.89 1481.61 1314.17 1497.5C1331.79 1513.05 1340.6 1535.17 1340.6 1563.85V1681.5C1340.6 1687.38 1341.64 1691.35 1343.71 1693.43C1345.78 1695.15 1349.76 1696.02 1355.63 1696.02H1382.06V1738H1360.81C1341.46 1738 1328.33 1734.2 1321.42 1726.6C1314.86 1719 1311.57 1704.83 1311.57 1684.1H1291.88C1286.7 1702.75 1277.19 1717.61 1263.37 1728.67C1249.89 1739.73 1232.79 1745.26 1212.06 1745.26C1186.83 1745.26 1166.79 1738.69 1151.93 1725.56C1137.42 1712.43 1130.16 1694.46 1130.16 1671.66ZM1291.88 1631.75V1605.31C1217.59 1612.57 1180.44 1633.3 1180.44 1667.51C1180.44 1679.26 1184.24 1688.59 1191.84 1695.5C1199.79 1702.06 1211.19 1705.35 1226.05 1705.35C1244.37 1705.35 1259.92 1698.95 1272.7 1686.17C1285.49 1673.38 1291.88 1655.24 1291.88 1631.75ZM1372.2 1608.94C1372.2 1569.55 1383.95 1537.24 1407.45 1512.02C1430.94 1486.45 1460.66 1473.66 1496.6 1473.66C1523.89 1473.66 1547.04 1480.57 1566.05 1494.39C1585.05 1508.21 1598.01 1526.18 1604.92 1548.3L1559.31 1563.85C1548.25 1531.71 1527.18 1515.64 1496.08 1515.64C1475 1515.64 1457.55 1523.94 1443.73 1540.52C1429.91 1556.76 1423 1579.57 1423 1608.94C1423 1639.35 1429.73 1662.67 1443.21 1678.91C1456.69 1695.15 1474.48 1703.27 1496.6 1703.27C1530.8 1703.27 1553.61 1684.79 1565.01 1647.81L1611.14 1663.88C1601.81 1689.45 1587.3 1709.49 1567.6 1724.01C1547.91 1738.17 1524.41 1745.26 1497.11 1745.26C1459.45 1745.26 1429.21 1732.99 1406.41 1708.46C1383.6 1683.58 1372.2 1650.41 1372.2 1608.94ZM1607.11 1671.66L1653.24 1656.62C1661.88 1689.11 1684.34 1705.35 1720.62 1705.35C1757.25 1705.35 1775.57 1693.43 1775.57 1669.58C1775.57 1650.58 1760.19 1637.97 1729.44 1631.75L1698.34 1626.04C1671.73 1620.52 1651.52 1612.4 1637.69 1601.68C1624.22 1590.63 1617.48 1574.04 1617.48 1551.93C1617.48 1529.12 1626.81 1510.46 1645.47 1495.95C1664.13 1481.09 1687.11 1473.66 1714.4 1473.66C1742.39 1473.66 1765.2 1479.71 1782.82 1491.8C1800.79 1503.55 1812.88 1519.27 1819.1 1538.97L1776.08 1555.55C1765.72 1526.53 1744.98 1512.02 1713.89 1512.02C1697.99 1512.02 1685.72 1515.47 1677.09 1522.38C1668.45 1528.95 1664.13 1537.07 1664.13 1546.74C1664.13 1555.73 1667.06 1562.64 1672.94 1567.48C1678.81 1572.31 1690.39 1576.46 1707.67 1579.91L1738.25 1586.13C1760.36 1590.28 1780.4 1598.4 1798.37 1610.5C1816.34 1622.24 1825.32 1640.56 1825.32 1665.44C1825.32 1689.97 1815.99 1709.49 1797.33 1724.01C1778.67 1738.17 1752.93 1745.26 1720.11 1745.26C1691.77 1745.26 1667.06 1738.69 1645.99 1725.56C1625.25 1712.43 1612.3 1694.46 1607.11 1671.66ZM1852.83 1738V1375.18H1901.55V1445.67C1901.21 1469.51 1898.96 1487.83 1894.81 1500.61C1890.67 1513.4 1883.93 1526.7 1874.6 1540.52H1901.03C1906.22 1523.25 1916.06 1507.87 1930.58 1494.39C1945.09 1480.57 1962.71 1473.66 1983.44 1473.66C2013.16 1473.66 2035.45 1482.13 2050.31 1499.06C2065.51 1515.64 2073.11 1539.31 2073.11 1570.07V1738H2024.39V1580.95C2024.39 1537.76 2006.42 1516.16 1970.49 1516.16C1949.75 1516.16 1934.21 1522.38 1923.84 1534.82C1914.51 1545.88 1908.46 1558.49 1905.7 1572.66C1902.93 1586.83 1901.55 1604.97 1901.55 1627.08V1738H1852.83ZM2118.22 1738V1480.92H2164.87C2164.87 1495.43 2156.58 1515.3 2139.99 1540.52H2166.43C2171.61 1523.25 2181.46 1507.87 2195.97 1494.39C2210.48 1480.57 2228.1 1473.66 2248.84 1473.66C2278.55 1473.66 2300.84 1482.13 2315.7 1499.06C2330.9 1515.64 2338.5 1539.31 2338.5 1570.07V1738H2289.78V1580.95C2289.78 1537.76 2271.82 1516.16 2235.88 1516.16C2215.15 1516.16 2199.6 1522.38 2189.23 1534.82C2179.9 1545.88 2173.85 1558.49 2171.09 1572.66C2168.33 1586.83 2166.94 1604.97 2166.94 1627.08V1738H2118.22ZM1764.8 2158V1842.87H1636.77V1795.18H1949.32V1842.87H1816.63V2158H1764.8ZM1860.88 2126.38C1837.38 2100.47 1825.63 2068.16 1825.63 2029.46C1825.63 1990.76 1837.21 1958.45 1860.36 1932.53C1883.51 1906.62 1912.71 1893.66 1947.95 1893.66C1983.2 1893.66 2012.22 1906.62 2035.03 1932.53C2058.18 1958.45 2069.76 1990.76 2069.76 2029.46C2069.76 2068.16 2058.18 2100.47 2035.03 2126.38C2011.88 2152.3 1982.85 2165.26 1947.95 2165.26C1913.4 2165.26 1884.37 2152.3 1860.88 2126.38ZM2019.48 2030.5C2019.48 1999.74 2012.91 1976.25 1999.78 1960C1987 1943.76 1969.72 1935.64 1947.95 1935.64C1925.84 1935.64 1908.39 1943.76 1895.6 1960C1882.82 1976.25 1876.43 1999.74 1876.43 2030.5C1876.43 2060.56 1882.65 2083.54 1895.08 2099.43C1907.87 2115.33 1925.49 2123.27 1947.95 2123.27C1970.07 2123.27 1987.52 2115.33 2000.3 2099.43C2013.09 2083.19 2019.48 2060.21 2019.48 2030.5ZM2099.81 2158V1795.18H2247.01C2284.33 1795.18 2313.88 1805.37 2335.65 1825.76C2357.42 1845.8 2368.3 1872.41 2368.3 1905.58C2368.3 1938.75 2357.42 1965.53 2335.65 1985.92C2313.88 2006.31 2284.16 2016.5 2246.5 2016.5H2151.65V2158H2099.81ZM2151.65 1971.41H2237.17C2261.7 1971.41 2280.53 1965.36 2293.66 1953.27C2306.79 1941.17 2313.36 1925.28 2313.36 1905.58C2313.36 1886.23 2306.79 1871.03 2293.66 1859.97C2280.53 1848.57 2261.7 1842.87 2237.17 1842.87H2151.65V1971.41ZM2390.3 2158V1795.18H2439.02V1865.67C2438.67 1889.51 2436.43 1907.83 2432.28 1920.61C2428.13 1933.4 2421.39 1946.7 2412.06 1960.52H2438.5C2443.68 1943.25 2453.53 1927.87 2468.04 1914.39C2482.56 1900.57 2500.18 1893.66 2520.91 1893.66C2550.63 1893.66 2572.91 1902.13 2587.77 1919.06C2602.98 1935.64 2610.58 1959.31 2610.58 1990.07V2158H2561.86V2000.95C2561.86 1957.76 2543.89 1936.16 2507.95 1936.16C2487.22 1936.16 2471.67 1942.38 2461.3 1954.82C2451.97 1965.88 2445.93 1978.49 2443.16 1992.66C2440.4 2006.83 2439.02 2024.97 2439.02 2047.08V2158H2390.3ZM2636.51 2030.5C2636.51 1989.38 2647.39 1956.38 2669.16 1931.5C2690.93 1906.27 2718.92 1893.66 2753.13 1893.66C2787.34 1893.66 2814.98 1905.58 2836.06 1929.42C2857.14 1953.27 2867.68 1983.67 2867.68 2020.65C2867.68 2027.21 2867.16 2034.3 2866.12 2041.9H2685.23C2686.27 2069.54 2693.18 2090.27 2705.96 2104.1C2719.09 2117.57 2735.85 2124.31 2756.24 2124.31C2786.99 2124.31 2809.45 2107.9 2823.62 2075.07L2868.2 2091.14C2859.21 2114.98 2844.87 2133.29 2825.18 2146.08C2805.83 2158.86 2782.5 2165.26 2755.2 2165.26C2718.92 2165.26 2690.07 2153.51 2668.65 2130.01C2647.22 2106.17 2636.51 2073 2636.51 2030.5ZM2686.27 2003.02H2816.88C2816.54 1981.26 2810.32 1964.15 2798.22 1951.71C2786.13 1938.93 2771.1 1932.53 2753.13 1932.53C2735.51 1932.53 2720.48 1938.93 2708.04 1951.71C2695.6 1964.5 2688.34 1981.6 2686.27 2003.02ZM2898.3 2158V1900.92H2945.47C2945.47 1921.3 2936.31 1945.84 2918 1974.52H2945.99C2959.12 1923.03 2987.45 1897.29 3030.99 1897.29C3039.63 1897.29 3047.75 1898.15 3055.35 1899.88V1950.16C3044.29 1948.43 3035.14 1947.57 3027.88 1947.57C2973.98 1947.57 2947.02 1979.53 2947.02 2043.45V2158H2898.3Z" fill="#FF4D9A"/>
<rect opacity="0.3" x="3051" y="207" width="20" height="370.588" rx="10" fill="#FF4D9A"/>
<path d="M1940.87 2611.2H1969.26C1977.76 2611.2 1985.58 2613.01 1992.72 2616.64C1999.97 2620.27 2005.81 2626.1 2010.23 2634.15C2014.76 2642.2 2017.03 2652.51 2017.03 2665.09C2017.03 2677.9 2014.76 2688.44 2010.23 2696.71C2005.81 2704.87 1999.97 2710.82 1992.72 2714.56C1985.58 2718.19 1977.76 2720 1969.26 2720H1940.87V2611.2ZM1969.26 2709.63C1975.95 2709.63 1981.9 2707.99 1987.11 2704.7C1992.32 2701.41 1996.46 2696.43 1999.52 2689.74C2002.58 2683.05 2004.11 2674.84 2004.11 2665.09C2004.11 2655.57 2002.58 2647.58 1999.52 2641.12C1996.46 2634.55 1992.27 2629.67 1986.94 2626.5C1981.73 2623.21 1975.83 2621.57 1969.26 2621.57H1953.96V2709.63H1969.26ZM2050.37 2611.2H2120.24V2621.57H2063.29V2654.55H2108.85V2664.92H2063.29V2709.63H2120.24V2720H2050.37V2611.2ZM2189.79 2722.04C2181.29 2722.04 2173.81 2719.72 2167.35 2715.07C2161 2710.42 2156.07 2703.85 2152.56 2695.35C2149.05 2686.85 2147.29 2676.93 2147.29 2665.6C2147.29 2654.27 2149.1 2644.35 2152.73 2635.85C2156.36 2627.35 2161.51 2620.78 2168.2 2616.13C2174.89 2611.48 2182.65 2609.16 2191.49 2609.16C2196.93 2609.16 2202.09 2610.07 2206.96 2611.88C2211.95 2613.58 2217.44 2616.53 2223.45 2620.72L2217.5 2630.58C2211.83 2626.73 2207.07 2624.12 2203.22 2622.76C2199.48 2621.29 2195.74 2620.55 2192 2620.55C2185.54 2620.55 2179.93 2622.53 2175.17 2626.5C2170.41 2630.35 2166.73 2635.74 2164.12 2642.65C2161.63 2649.45 2160.38 2657.21 2160.38 2665.94C2160.38 2674.55 2161.57 2682.26 2163.95 2689.06C2166.33 2695.86 2169.73 2701.19 2174.15 2705.04C2178.68 2708.78 2183.95 2710.65 2189.96 2710.65C2196.42 2710.65 2202.03 2707.93 2206.79 2702.49C2211.55 2696.94 2215.8 2687.47 2219.54 2674.1L2231.27 2677.33C2226.85 2693.2 2221.24 2704.64 2214.44 2711.67C2207.64 2718.58 2199.42 2722.04 2189.79 2722.04ZM2282.29 2703.68H2299.8V2720H2282.29V2703.68ZM2399.78 2722.04C2392.41 2722.04 2386.01 2720.06 2380.57 2716.09C2375.13 2712.01 2370.94 2706.4 2367.99 2699.26C2365.04 2692.12 2363.57 2684.02 2363.57 2674.95C2363.57 2656.02 2368.73 2640.21 2379.04 2627.52C2389.47 2614.71 2403.58 2605.53 2421.37 2599.98L2425.11 2612.22C2411.17 2616.87 2400.29 2623.1 2392.47 2630.92C2384.76 2638.74 2379.83 2648.37 2377.68 2659.82H2378.53C2382.16 2656.53 2386.18 2654.1 2390.6 2652.51C2395.02 2650.92 2399.38 2650.13 2403.69 2650.13C2412.76 2650.13 2420.01 2653.36 2425.45 2659.82C2430.89 2666.17 2433.61 2674.5 2433.61 2684.81C2433.61 2691.95 2432.14 2698.35 2429.19 2704.02C2426.36 2709.69 2422.33 2714.11 2417.12 2717.28C2412.02 2720.45 2406.24 2722.04 2399.78 2722.04ZM2376.15 2675.8C2376.15 2686.57 2378.36 2695.07 2382.78 2701.3C2387.2 2707.53 2392.98 2710.65 2400.12 2710.65C2406.13 2710.65 2411 2708.27 2414.74 2703.51C2418.59 2698.64 2420.52 2692.4 2420.52 2684.81C2420.52 2677.56 2418.76 2671.66 2415.25 2667.13C2411.74 2662.6 2406.58 2660.33 2399.78 2660.33C2395.13 2660.33 2390.71 2661.18 2386.52 2662.88C2382.44 2664.58 2379.04 2667.07 2376.32 2670.36C2376.21 2671.72 2376.15 2673.53 2376.15 2675.8ZM2495.34 2621.57H2462.36V2611.2H2541.24V2621.57H2508.26V2720H2495.34V2621.57ZM2570.84 2611.2H2583.76V2657.78H2630.68V2611.2H2643.6V2720H2630.68V2668.15H2583.76V2720H2570.84V2611.2ZM1972.32 2764.16C1979.69 2764.16 1986.09 2766.2 1991.53 2770.28C1996.97 2774.25 2001.16 2779.8 2004.11 2786.94C2007.06 2794.08 2008.53 2802.18 2008.53 2811.25C2008.53 2830.18 2003.32 2846.04 1992.89 2858.85C1982.58 2871.54 1968.52 2880.67 1950.73 2886.22L1946.99 2873.98C1960.93 2869.33 1971.75 2863.1 1979.46 2855.28C1987.28 2847.46 1992.27 2837.83 1994.42 2826.38H1993.57C1989.94 2829.67 1985.92 2832.1 1981.5 2833.69C1977.08 2835.28 1972.72 2836.07 1968.41 2836.07C1959.34 2836.07 1952.09 2832.9 1946.65 2826.55C1941.21 2820.09 1938.49 2811.7 1938.49 2801.39C1938.49 2794.25 1939.91 2787.85 1942.74 2782.18C1945.69 2776.51 1949.71 2772.09 1954.81 2768.92C1960.02 2765.75 1965.86 2764.16 1972.32 2764.16ZM1951.58 2801.39C1951.58 2808.64 1953.34 2814.54 1956.85 2819.07C1960.36 2823.6 1965.52 2825.87 1972.32 2825.87C1976.97 2825.87 1981.33 2825.02 1985.41 2823.32C1989.6 2821.62 1993.06 2819.13 1995.78 2815.84C1995.89 2814.48 1995.95 2812.67 1995.95 2810.4C1995.95 2799.63 1993.74 2791.13 1989.32 2784.9C1984.9 2778.67 1979.12 2775.55 1971.98 2775.55C1965.97 2775.55 1961.04 2777.99 1957.19 2782.86C1953.45 2787.62 1951.58 2793.8 1951.58 2801.39ZM2050.71 2766.2H2094.06C2103.35 2766.2 2110.72 2768.47 2116.16 2773C2121.71 2777.42 2124.49 2783.43 2124.49 2791.02C2124.49 2798.84 2121.71 2805.07 2116.16 2809.72C2110.72 2814.37 2103.35 2816.69 2094.06 2816.69H2063.63V2875H2050.71V2766.2ZM2092.7 2806.66C2098.59 2806.66 2103.18 2805.3 2106.47 2802.58C2109.76 2799.75 2111.4 2795.89 2111.4 2791.02C2111.4 2786.49 2109.76 2782.97 2106.47 2780.48C2103.18 2777.87 2098.59 2776.57 2092.7 2776.57H2063.63V2806.66H2092.7ZM2144.23 2766.2H2161.91L2179.42 2833.86C2182.93 2847.57 2184.86 2857.94 2185.2 2864.97H2185.71C2186.05 2857.94 2187.98 2847.57 2191.49 2833.86L2209 2766.2H2226.68V2875H2215.63V2811.25V2800.54C2215.63 2791.13 2215.86 2784.22 2216.31 2779.8H2215.8C2215.01 2784.56 2213.31 2791.81 2210.7 2801.56L2208.15 2811.08L2191.49 2875H2179.42L2162.76 2811.08L2160.21 2801.56C2157.6 2791.81 2155.9 2784.56 2155.11 2779.8H2154.6C2155.05 2784.22 2155.28 2791.13 2155.28 2800.54V2811.25V2875H2144.23V2766.2ZM2257.81 2825.7H2324.11V2836.24H2257.81V2825.7ZM2398.42 2782.18L2371.39 2805.64L2365.27 2797.14L2400.63 2766.2H2411.34V2875H2398.42V2782.18ZM2492.28 2766.2H2511.49L2545.15 2875H2531.72L2517.95 2831.14H2485.65L2472.05 2875H2458.45L2492.28 2766.2ZM2515.57 2820.77C2510.36 2804.34 2506.84 2793.06 2505.03 2786.94C2503.33 2780.71 2502.37 2776.12 2502.14 2773.17H2501.63C2501.29 2776.34 2500.21 2781.1 2498.4 2787.45C2496.59 2793.8 2493.13 2804.9 2488.03 2820.77H2515.57ZM2565.91 2766.2H2583.59L2601.1 2833.86C2604.61 2847.57 2606.54 2857.94 2606.88 2864.97H2607.39C2607.73 2857.94 2609.66 2847.57 2613.17 2833.86L2630.68 2766.2H2648.36V2875H2637.31V2811.25V2800.54C2637.31 2791.13 2637.54 2784.22 2637.99 2779.8H2637.48C2636.69 2784.56 2634.99 2791.81 2632.38 2801.56L2629.83 2811.08L2613.17 2875H2601.1L2584.44 2811.08L2581.89 2801.56C2579.28 2791.81 2577.58 2784.56 2576.79 2779.8H2576.28C2576.73 2784.22 2576.96 2791.13 2576.96 2800.54V2811.25V2875H2565.91V2766.2ZM1947.16 3058.9C1942.17 3058.9 1938.32 3057.48 1935.6 3054.65C1932.88 3051.93 1931.52 3048.08 1931.52 3043.09V2934.97C1931.52 2929.87 1932.88 2925.96 1935.6 2923.24C1938.32 2920.52 1942.17 2919.16 1947.16 2919.16H2003.6C2008.59 2919.16 2012.44 2920.52 2015.16 2923.24C2017.88 2925.96 2019.24 2929.87 2019.24 2934.97V3007.9C2019.24 3017.31 2014.42 3022.01 2004.79 3022.01H2003.6C2000.2 3022.01 1997.25 3021.1 1994.76 3019.29C1992.38 3017.36 1991.13 3014.36 1991.02 3010.28H1990.51C1988.92 3014.25 1986.43 3017.36 1983.03 3019.63C1979.74 3021.78 1975.66 3022.86 1970.79 3022.86C1965.35 3022.86 1960.87 3021.39 1957.36 3018.44C1953.85 3015.38 1952.09 3011.41 1952.09 3006.54C1952.09 3001.78 1953.56 2997.87 1956.51 2994.81C1959.46 2991.75 1964.5 2989.14 1971.64 2986.99C1977.65 2985.06 1981.9 2983.36 1984.39 2981.89C1986.88 2980.42 1988.13 2978.21 1988.13 2975.26C1988.13 2971.86 1987.17 2969.2 1985.24 2967.27C1983.31 2965.34 1980.76 2964.38 1977.59 2964.38C1974.42 2964.38 1971.36 2965.12 1968.41 2966.59C1965.46 2968.06 1962.23 2969.99 1958.72 2972.37L1954.47 2965.74C1963.65 2959.39 1971.87 2956.22 1979.12 2956.22C1984.45 2956.22 1988.87 2957.86 1992.38 2961.15C1995.89 2964.44 1997.65 2969.14 1997.65 2975.26V3006.03C1997.65 3009.32 1998.22 3011.58 1999.35 3012.83C2000.48 3013.96 2002.01 3014.53 2003.94 3014.53H2004.79C2006.49 3014.53 2007.85 3013.85 2008.87 3012.49C2009.89 3011.02 2010.4 3008.86 2010.4 3006.03V2937.01C2010.4 2930.44 2007.17 2927.15 2000.71 2927.15H1950.05C1943.59 2927.15 1940.36 2930.44 1940.36 2937.01V3041.05C1940.36 3047.62 1943.59 3050.91 1950.05 3050.91H2013.97V3058.9H1947.16ZM1961.44 3005.52C1961.44 3008.92 1962.63 3011.47 1965.01 3013.17C1967.39 3014.87 1970.11 3015.72 1973.17 3015.72C1977.7 3015.72 1981.39 3014.25 1984.22 3011.3C1987.05 3008.24 1988.47 3003.88 1988.47 2998.21V2986.14C1987.22 2987.84 1985.41 2989.2 1983.03 2990.22C1980.76 2991.24 1977.76 2992.26 1974.02 2993.28C1969.26 2994.53 1965.97 2996.17 1964.16 2998.21C1962.35 3000.14 1961.44 3002.57 1961.44 3005.52ZM2189.79 3032.04C2181.29 3032.04 2173.81 3029.72 2167.35 3025.07C2161 3020.42 2156.07 3013.85 2152.56 3005.35C2149.05 2996.85 2147.29 2986.93 2147.29 2975.6C2147.29 2964.27 2149.1 2954.35 2152.73 2945.85C2156.36 2937.35 2161.51 2930.78 2168.2 2926.13C2174.89 2921.48 2182.65 2919.16 2191.49 2919.16C2196.93 2919.16 2202.09 2920.07 2206.96 2921.88C2211.95 2923.58 2217.44 2926.53 2223.45 2930.72L2217.5 2940.58C2211.83 2936.73 2207.07 2934.12 2203.22 2932.76C2199.48 2931.29 2195.74 2930.55 2192 2930.55C2185.54 2930.55 2179.93 2932.53 2175.17 2936.5C2170.41 2940.35 2166.73 2945.74 2164.12 2952.65C2161.63 2959.45 2160.38 2967.21 2160.38 2975.94C2160.38 2984.55 2161.57 2992.26 2163.95 2999.06C2166.33 3005.86 2169.73 3011.19 2174.15 3015.04C2178.68 3018.78 2183.95 3020.65 2189.96 3020.65C2196.42 3020.65 2202.03 3017.93 2206.79 3012.49C2211.55 3006.94 2215.8 2997.47 2219.54 2984.1L2231.27 2987.33C2226.85 3003.2 2221.24 3014.64 2214.44 3021.67C2207.64 3028.58 2199.42 3032.04 2189.79 3032.04ZM2261.21 2921.2H2274.3V3019.63H2330.4V3030H2261.21V2921.2ZM2396.38 3032.04C2388.67 3032.04 2381.87 3029.77 2375.98 3025.24C2370.2 3020.59 2365.67 3014.02 2362.38 3005.52C2359.21 2997.02 2357.62 2987.05 2357.62 2975.6C2357.62 2964.15 2359.21 2954.18 2362.38 2945.68C2365.67 2937.18 2370.2 2930.66 2375.98 2926.13C2381.87 2921.48 2388.67 2919.16 2396.38 2919.16C2404.09 2919.16 2410.83 2921.48 2416.61 2926.13C2422.5 2930.66 2427.04 2937.18 2430.21 2945.68C2433.5 2954.18 2435.14 2964.15 2435.14 2975.6C2435.14 2987.05 2433.5 2997.02 2430.21 3005.52C2427.04 3014.02 2422.5 3020.59 2416.61 3025.24C2410.83 3029.77 2404.09 3032.04 2396.38 3032.04ZM2370.54 2975.6C2370.54 2985.01 2371.67 2993.11 2373.94 2999.91C2376.21 3006.71 2379.27 3011.87 2383.12 3015.38C2386.97 3018.89 2391.39 3020.65 2396.38 3020.65C2401.37 3020.65 2405.79 3018.89 2409.64 3015.38C2413.49 3011.87 2416.55 3006.71 2418.82 2999.91C2421.09 2993.11 2422.22 2985.01 2422.22 2975.6C2422.22 2966.19 2421.09 2958.09 2418.82 2951.29C2416.55 2944.49 2413.49 2939.33 2409.64 2935.82C2405.79 2932.31 2401.37 2930.55 2396.38 2930.55C2391.39 2930.55 2386.97 2932.31 2383.12 2935.82C2379.27 2939.33 2376.21 2944.49 2373.94 2951.29C2371.67 2958.09 2370.54 2966.19 2370.54 2975.6ZM2501.8 3032.04C2490.47 3032.04 2481.57 3027.51 2475.11 3018.44C2468.65 3009.37 2465.42 2996.91 2465.42 2981.04V2921.2H2478.34V2981.04C2478.34 2993.39 2480.44 3003.08 2484.63 3010.11C2488.82 3017.14 2494.55 3020.65 2501.8 3020.65C2509.05 3020.65 2514.78 3017.14 2518.97 3010.11C2523.16 3003.08 2525.26 2993.39 2525.26 2981.04V2921.2H2538.18V2981.04C2538.18 2996.91 2534.95 3009.37 2528.49 3018.44C2522.03 3027.51 2513.13 3032.04 2501.8 3032.04ZM2573.39 2921.2H2601.78C2610.28 2921.2 2618.1 2923.01 2625.24 2926.64C2632.49 2930.27 2638.33 2936.1 2642.75 2944.15C2647.28 2952.2 2649.55 2962.51 2649.55 2975.09C2649.55 2987.9 2647.28 2998.44 2642.75 3006.71C2638.33 3014.87 2632.49 3020.82 2625.24 3024.56C2618.1 3028.19 2610.28 3030 2601.78 3030H2573.39V2921.2ZM2601.78 3019.63C2608.47 3019.63 2614.42 3017.99 2619.63 3014.7C2624.84 3011.41 2628.98 3006.43 2632.04 2999.74C2635.1 2993.05 2636.63 2984.84 2636.63 2975.09C2636.63 2965.57 2635.1 2957.58 2632.04 2951.12C2628.98 2944.55 2624.79 2939.67 2619.46 2936.5C2614.25 2933.21 2608.35 2931.57 2601.78 2931.57H2586.48V3019.63H2601.78ZM2706.52 2991.24H2672.69V2980.7H2706.52V2952.82H2718.76V2980.7H2752.59V2991.24H2718.76V3019.12H2706.52V2991.24ZM2192.85 3187.04C2183.22 3187.04 2174.21 3184.04 2165.82 3178.03C2157.43 3171.91 2150.92 3162.84 2146.27 3150.83L2156.64 3144.88C2161.17 3155.19 2166.5 3162.9 2172.62 3168C2178.85 3172.99 2185.48 3175.48 2192.51 3175.48C2197.84 3175.48 2202.31 3174.06 2205.94 3171.23C2209.57 3168.4 2211.38 3163.98 2211.38 3157.97C2211.38 3154.34 2210.47 3151.23 2208.66 3148.62C2206.85 3146.01 2204.35 3143.63 2201.18 3141.48C2198.01 3139.33 2193.13 3136.38 2186.56 3132.64C2179.42 3128.56 2173.81 3125.1 2169.73 3122.27C2165.76 3119.32 2162.65 3116.09 2160.38 3112.58C2158.11 3108.95 2156.98 3104.7 2156.98 3099.83C2156.98 3092.35 2159.7 3086.23 2165.14 3081.47C2170.69 3076.6 2177.83 3074.16 2186.56 3074.16C2192 3074.16 2197.21 3075.07 2202.2 3076.88C2207.3 3078.69 2213.08 3081.58 2219.54 3085.55L2213.76 3096.09C2207.98 3092.58 2202.99 3089.97 2198.8 3088.27C2194.72 3086.57 2190.75 3085.72 2186.9 3085.72C2181.8 3085.72 2177.66 3087.08 2174.49 3089.8C2171.43 3092.41 2169.9 3095.81 2169.9 3100C2169.9 3103.17 2170.75 3105.95 2172.45 3108.33C2174.26 3110.71 2176.64 3112.86 2179.59 3114.79C2182.65 3116.72 2187.75 3119.78 2194.89 3123.97C2202.03 3127.94 2207.58 3131.39 2211.55 3134.34C2215.52 3137.17 2218.63 3140.52 2220.9 3144.37C2223.17 3148.11 2224.3 3152.64 2224.3 3157.97C2224.3 3166.92 2221.35 3174.01 2215.46 3179.22C2209.57 3184.43 2202.03 3187.04 2192.85 3187.04ZM2261.55 3076.2H2304.9C2314.19 3076.2 2321.56 3078.47 2327 3083C2332.55 3087.42 2335.33 3093.43 2335.33 3101.02C2335.33 3108.84 2332.55 3115.07 2327 3119.72C2321.56 3124.37 2314.19 3126.69 2304.9 3126.69H2274.47V3185H2261.55V3076.2ZM2303.54 3116.66C2309.43 3116.66 2314.02 3115.3 2317.31 3112.58C2320.6 3109.75 2322.24 3105.89 2322.24 3101.02C2322.24 3096.49 2320.6 3092.97 2317.31 3090.48C2314.02 3087.87 2309.43 3086.57 2303.54 3086.57H2274.47V3116.66H2303.54ZM2360.68 3174.63H2389.92V3086.57H2360.68V3076.2H2432.08V3086.57H2402.84V3174.63H2432.08V3185H2360.68V3174.63ZM2470.35 3076.2H2509.96C2519.59 3076.2 2527.24 3078.47 2532.91 3083C2538.69 3087.53 2541.58 3093.65 2541.58 3101.36C2541.58 3108.5 2538.92 3114.22 2533.59 3118.53C2528.38 3122.72 2521.58 3124.88 2513.19 3124.99V3125.5C2517.04 3126.52 2520.27 3128.33 2522.88 3130.94C2525.49 3133.43 2527.98 3137.57 2530.36 3143.35L2547.7 3185H2533.93L2517.95 3145.39C2515.34 3138.82 2512.34 3134.45 2508.94 3132.3C2505.65 3130.15 2501.35 3129.07 2496.02 3129.07H2483.27V3185H2470.35V3076.2ZM2508.43 3119.55C2514.89 3119.55 2519.93 3118.08 2523.56 3115.13C2527.19 3112.18 2529 3108.05 2529 3102.72C2529 3097.85 2527.13 3093.94 2523.39 3090.99C2519.76 3088.04 2514.83 3086.57 2508.6 3086.57H2483.27V3119.55H2508.43ZM2571.52 3174.63H2600.76V3086.57H2571.52V3076.2H2642.92V3086.57H2613.68V3174.63H2642.92V3185H2571.52V3174.63ZM2706.18 3086.57H2673.2V3076.2H2752.08V3086.57H2719.1V3185H2706.18V3086.57ZM2825.37 3187.04C2815.74 3187.04 2806.73 3184.04 2798.34 3178.03C2789.95 3171.91 2783.44 3162.84 2778.79 3150.83L2789.16 3144.88C2793.69 3155.19 2799.02 3162.9 2805.14 3168C2811.37 3172.99 2818 3175.48 2825.03 3175.48C2830.36 3175.48 2834.83 3174.06 2838.46 3171.23C2842.09 3168.4 2843.9 3163.98 2843.9 3157.97C2843.9 3154.34 2842.99 3151.23 2841.18 3148.62C2839.37 3146.01 2836.87 3143.63 2833.7 3141.48C2830.53 3139.33 2825.65 3136.38 2819.08 3132.64C2811.94 3128.56 2806.33 3125.1 2802.25 3122.27C2798.28 3119.32 2795.17 3116.09 2792.9 3112.58C2790.63 3108.95 2789.5 3104.7 2789.5 3099.83C2789.5 3092.35 2792.22 3086.23 2797.66 3081.47C2803.21 3076.6 2810.35 3074.16 2819.08 3074.16C2824.52 3074.16 2829.73 3075.07 2834.72 3076.88C2839.82 3078.69 2845.6 3081.58 2852.06 3085.55L2846.28 3096.09C2840.5 3092.58 2835.51 3089.97 2831.32 3088.27C2827.24 3086.57 2823.27 3085.72 2819.42 3085.72C2814.32 3085.72 2810.18 3087.08 2807.01 3089.8C2803.95 3092.41 2802.42 3095.81 2802.42 3100C2802.42 3103.17 2803.27 3105.95 2804.97 3108.33C2806.78 3110.71 2809.16 3112.86 2812.11 3114.79C2815.17 3116.72 2820.27 3119.78 2827.41 3123.97C2834.55 3127.94 2840.1 3131.39 2844.07 3134.34C2848.04 3137.17 2851.15 3140.52 2853.42 3144.37C2855.69 3148.11 2856.82 3152.64 2856.82 3157.97C2856.82 3166.92 2853.87 3174.01 2847.98 3179.22C2842.09 3184.43 2834.55 3187.04 2825.37 3187.04Z" fill="#FF4D9A"/>
<mask id="path-9-inside-1_759_2152" fill="white">
<path d="M1117 211H2965.13V313.407H1117V211Z"/>
</mask>
<path d="M1117 218H2965.13V204H1117V218ZM2965.13 306.407H1117V320.407H2965.13V306.407Z" fill="#FF4D9A" mask="url(#path-9-inside-1_759_2152)"/>
<path d="M1126.41 250.309H1134.49V252.191H1128.77V278.837H1134.49V280.72H1126.41V250.309ZM1159.26 251.033H1163.02L1166.75 265.442C1167.5 268.362 1167.91 270.571 1167.98 272.067H1168.09C1168.16 270.571 1168.57 268.362 1169.32 265.442L1173.05 251.033H1176.82V274.203H1174.46V260.627V258.346C1174.46 256.343 1174.51 254.87 1174.61 253.929H1174.5C1174.33 254.943 1173.97 256.488 1173.41 258.563L1172.87 260.591L1169.32 274.203H1166.75L1163.2 260.591L1162.66 258.563C1162.11 256.488 1161.74 254.943 1161.58 253.929H1161.47C1161.56 254.87 1161.61 256.343 1161.61 258.346V260.627V274.203H1159.26V251.033ZM1187.97 274.638C1185.56 274.638 1183.66 273.672 1182.29 271.741C1180.91 269.81 1180.22 267.156 1180.22 263.777V251.033H1182.98V263.777C1182.98 266.407 1183.42 268.471 1184.32 269.967C1185.21 271.464 1186.43 272.212 1187.97 272.212C1189.52 272.212 1190.74 271.464 1191.63 269.967C1192.52 268.471 1192.97 266.407 1192.97 263.777V251.033H1195.72V263.777C1195.72 267.156 1195.03 269.81 1193.66 271.741C1192.28 273.672 1190.39 274.638 1187.97 274.638ZM1201.55 251.033H1204.34V271.995H1216.29V274.203H1201.55V251.033ZM1226.43 253.241H1219.4V251.033H1236.2V253.241H1229.18V274.203H1226.43V253.241ZM1240.12 271.995H1246.34V253.241H1240.12V251.033H1255.32V253.241H1249.1V271.995H1255.32V274.203H1240.12V271.995ZM1261.48 251.033H1276.22V253.314H1264.23V260.265H1273.94V262.473H1264.23V274.203H1261.48V251.033ZM1287.55 274.638C1285.91 274.638 1284.46 274.155 1283.21 273.189C1281.98 272.2 1281.01 270.8 1280.31 268.99C1279.64 267.18 1279.3 265.056 1279.3 262.618C1279.3 260.18 1279.64 258.056 1280.31 256.246C1281.01 254.436 1281.98 253.048 1283.21 252.083C1284.46 251.093 1285.91 250.598 1287.55 250.598C1289.19 250.598 1290.63 251.093 1291.86 252.083C1293.12 253.048 1294.08 254.436 1294.76 256.246C1295.46 258.056 1295.81 260.18 1295.81 262.618C1295.81 265.056 1295.46 267.18 1294.76 268.99C1294.08 270.8 1293.12 272.2 1291.86 273.189C1290.63 274.155 1289.19 274.638 1287.55 274.638ZM1282.05 262.618C1282.05 264.621 1282.29 266.347 1282.77 267.795C1283.26 269.243 1283.91 270.341 1284.73 271.09C1285.55 271.838 1286.49 272.212 1287.55 272.212C1288.61 272.212 1289.56 271.838 1290.38 271.09C1291.2 270.341 1291.85 269.243 1292.33 267.795C1292.81 266.347 1293.06 264.621 1293.06 262.618C1293.06 260.615 1292.81 258.889 1292.33 257.441C1291.85 255.993 1291.2 254.895 1290.38 254.146C1289.56 253.398 1288.61 253.024 1287.55 253.024C1286.49 253.024 1285.55 253.398 1284.73 254.146C1283.91 254.895 1283.26 255.993 1282.77 257.441C1282.29 258.889 1282.05 260.615 1282.05 262.618ZM1300.77 251.033H1309.21C1311.26 251.033 1312.89 251.516 1314.09 252.481C1315.32 253.446 1315.94 254.75 1315.94 256.391C1315.94 257.912 1315.37 259.13 1314.24 260.048C1313.13 260.941 1311.68 261.399 1309.89 261.423V261.532C1310.71 261.749 1311.4 262.135 1311.96 262.69C1312.51 263.221 1313.04 264.102 1313.55 265.333L1317.24 274.203H1314.31L1310.91 265.768C1310.35 264.368 1309.71 263.439 1308.99 262.98C1308.29 262.521 1307.37 262.292 1306.24 262.292H1303.52V274.203H1300.77V251.033ZM1308.88 260.265C1310.26 260.265 1311.33 259.951 1312.1 259.323C1312.88 258.696 1313.26 257.815 1313.26 256.681C1313.26 255.643 1312.86 254.81 1312.07 254.183C1311.29 253.555 1310.24 253.241 1308.92 253.241H1303.52V260.265H1308.88ZM1318.59 251.033H1322.35L1326.08 265.442C1326.83 268.362 1327.24 270.571 1327.31 272.067H1327.42C1327.49 270.571 1327.9 268.362 1328.65 265.442L1332.38 251.033H1336.15V274.203H1333.79V260.627V258.346C1333.79 256.343 1333.84 254.87 1333.94 253.929H1333.83C1333.66 254.943 1333.3 256.488 1332.74 258.563L1332.2 260.591L1328.65 274.203H1326.08L1322.53 260.591L1321.99 258.563C1321.44 256.488 1321.07 254.943 1320.9 253.929H1320.8C1320.89 254.87 1320.94 256.343 1320.94 258.346V260.627V274.203H1318.59V251.033ZM1345.27 251.033H1349.36L1356.53 274.203H1353.67L1350.74 264.863H1343.86L1340.97 274.203H1338.07L1345.27 251.033ZM1350.23 262.654C1349.12 259.155 1348.38 256.753 1347.99 255.45C1347.63 254.122 1347.42 253.145 1347.37 252.517H1347.26C1347.19 253.193 1346.96 254.207 1346.58 255.558C1346.19 256.91 1345.45 259.275 1344.37 262.654H1350.23ZM1365.84 253.241H1358.82V251.033H1375.62V253.241H1368.59V274.203H1365.84V253.241Z" fill="#FF4D9A"/>
<path d="M1971.29 274.638C1968.88 274.638 1966.98 273.672 1965.61 271.741C1964.23 269.81 1963.54 267.156 1963.54 263.777V251.033H1966.29V263.777C1966.29 266.407 1966.74 268.471 1967.63 269.967C1968.53 271.464 1969.74 272.212 1971.29 272.212C1972.83 272.212 1974.05 271.464 1974.95 269.967C1975.84 268.471 1976.29 266.407 1976.29 263.777V251.033H1979.04V263.777C1979.04 267.156 1978.35 269.81 1976.97 271.741C1975.6 273.672 1973.7 274.638 1971.29 274.638ZM1983.57 251.033H1986.93L1993.96 265.55C1994.61 266.902 1995.09 267.964 1995.41 268.736C1995.72 269.509 1996.03 270.39 1996.35 271.379H1996.46C1996.31 270.39 1996.23 269.436 1996.2 268.519C1996.18 267.578 1996.17 266.13 1996.17 264.175V251.033H1998.84V274.203H1995.44L1988.45 259.722C1987.8 258.37 1987.32 257.308 1987.01 256.536C1986.69 255.763 1986.39 254.87 1986.1 253.857H1985.99C1986.11 254.846 1986.19 255.812 1986.21 256.753C1986.23 257.67 1986.25 259.106 1986.25 261.061V274.203H1983.57V251.033ZM2003.92 251.033H2009.96C2011.77 251.033 2013.44 251.419 2014.96 252.191C2016.5 252.964 2017.75 254.207 2018.69 255.92C2019.65 257.634 2020.14 259.83 2020.14 262.509C2020.14 265.237 2019.65 267.481 2018.69 269.243C2017.75 270.981 2016.5 272.248 2014.96 273.045C2013.44 273.817 2011.77 274.203 2009.96 274.203H2003.92V251.033ZM2009.96 271.995C2011.39 271.995 2012.65 271.645 2013.76 270.945C2014.87 270.245 2015.76 269.183 2016.41 267.759C2017.06 266.335 2017.39 264.585 2017.39 262.509C2017.39 260.482 2017.06 258.78 2016.41 257.405C2015.76 256.005 2014.86 254.967 2013.73 254.291C2012.62 253.591 2011.36 253.241 2009.96 253.241H2006.71V271.995H2009.96ZM2024.7 251.033H2039.58V253.241H2027.45V260.265H2037.16V262.473H2027.45V271.995H2039.58V274.203H2024.7V251.033ZM2044.8 251.033H2059.53V253.314H2047.55V260.265H2057.25V262.473H2047.55V274.203H2044.8V251.033ZM2063.27 271.995H2069.49V253.241H2063.27V251.033H2078.47V253.241H2072.25V271.995H2078.47V274.203H2063.27V271.995ZM2083.15 251.033H2086.51L2093.54 265.55C2094.19 266.902 2094.67 267.964 2094.99 268.736C2095.3 269.509 2095.61 270.39 2095.93 271.379H2096.04C2095.89 270.39 2095.81 269.436 2095.78 268.519C2095.76 267.578 2095.75 266.13 2095.75 264.175V251.033H2098.43V274.203H2095.02L2088.04 259.722C2087.38 258.37 2086.9 257.308 2086.59 256.536C2086.27 255.763 2085.97 254.87 2085.68 253.857H2085.57C2085.69 254.846 2085.77 255.812 2085.79 256.753C2085.81 257.67 2085.83 259.106 2085.83 261.061V274.203H2083.15V251.033ZM2104.37 251.033H2119.25V253.241H2107.12V260.265H2116.82V262.473H2107.12V271.995H2119.25V274.203H2104.37V251.033ZM2123.41 251.033H2129.46C2131.27 251.033 2132.94 251.419 2134.46 252.191C2136 252.964 2137.24 254.207 2138.19 255.92C2139.15 257.634 2139.63 259.83 2139.63 262.509C2139.63 265.237 2139.15 267.481 2138.19 269.243C2137.24 270.981 2136 272.248 2134.46 273.045C2132.94 273.817 2131.27 274.203 2129.46 274.203H2123.41V251.033ZM2129.46 271.995C2130.88 271.995 2132.15 271.645 2133.26 270.945C2134.37 270.245 2135.25 269.183 2135.9 267.759C2136.56 266.335 2136.88 264.585 2136.88 262.509C2136.88 260.482 2136.56 258.78 2135.9 257.405C2135.25 256.005 2134.36 254.967 2133.23 254.291C2132.12 253.591 2130.86 253.241 2129.46 253.241H2126.2V271.995H2129.46Z" fill="#FF4D9A"/>
<path d="M2728.02 251.033H2742.9V253.241H2730.77V260.265H2740.47V262.473H2730.77V271.995H2742.9V274.203H2728.02V251.033ZM2751.41 264.139C2751.8 263.463 2752.12 262.956 2752.39 262.618C2752.68 262.256 2753.03 261.99 2753.44 261.822V261.713C2753 261.52 2752.63 261.242 2752.32 260.88C2752.03 260.518 2751.74 260.072 2751.45 259.541L2746.74 251.033H2749.64L2754.31 259.794L2758.94 251.033H2761.84L2757.13 259.541C2756.84 260.072 2756.54 260.518 2756.23 260.88C2755.94 261.242 2755.58 261.52 2755.14 261.713V261.822C2755.55 261.99 2755.89 262.256 2756.15 262.618C2756.44 262.956 2756.78 263.463 2757.17 264.139L2763.07 274.203H2759.99L2754.31 264.211L2748.59 274.203H2745.51L2751.41 264.139ZM2767.93 251.033H2777.16C2779.14 251.033 2780.7 251.516 2781.86 252.481C2783.05 253.422 2783.64 254.701 2783.64 256.319C2783.64 257.984 2783.05 259.311 2781.86 260.301C2780.7 261.291 2779.14 261.785 2777.16 261.785H2770.68V274.203H2767.93V251.033ZM2776.87 259.649C2778.12 259.649 2779.1 259.36 2779.8 258.78C2780.5 258.177 2780.85 257.356 2780.85 256.319C2780.85 255.353 2780.5 254.605 2779.8 254.074C2779.1 253.519 2778.12 253.241 2776.87 253.241H2770.68V259.649H2776.87ZM2787.41 251.033H2795.84C2797.89 251.033 2799.52 251.516 2800.73 252.481C2801.96 253.446 2802.58 254.75 2802.58 256.391C2802.58 257.912 2802.01 259.13 2800.87 260.048C2799.76 260.941 2798.32 261.399 2796.53 261.423V261.532C2797.35 261.749 2798.04 262.135 2798.59 262.69C2799.15 263.221 2799.68 264.102 2800.19 265.333L2803.88 274.203H2800.95L2797.54 265.768C2796.99 264.368 2796.35 263.439 2795.62 262.98C2794.93 262.521 2794.01 262.292 2792.87 262.292H2790.16V274.203H2787.41V251.033ZM2795.52 260.265C2796.89 260.265 2797.97 259.951 2798.74 259.323C2799.51 258.696 2799.9 257.815 2799.9 256.681C2799.9 255.643 2799.5 254.81 2798.7 254.183C2797.93 253.555 2796.88 253.241 2795.55 253.241H2790.16V260.265H2795.52ZM2807.69 251.033H2822.56V253.241H2810.44V260.265H2820.14V262.473H2810.44V271.995H2822.56V274.203H2807.69V251.033ZM2835.49 274.638C2833.44 274.638 2831.52 273.998 2829.74 272.719C2827.95 271.415 2826.56 269.485 2825.57 266.926L2827.78 265.659C2828.75 267.855 2829.88 269.497 2831.19 270.583C2832.51 271.645 2833.92 272.176 2835.42 272.176C2836.56 272.176 2837.51 271.874 2838.28 271.271C2839.05 270.667 2839.44 269.726 2839.44 268.447C2839.44 267.674 2839.25 267.011 2838.86 266.456C2838.47 265.9 2837.94 265.394 2837.27 264.935C2836.59 264.476 2835.55 263.849 2834.15 263.052C2832.63 262.184 2831.44 261.447 2830.57 260.844C2829.73 260.216 2829.06 259.529 2828.58 258.78C2828.1 258.008 2827.85 257.103 2827.85 256.065C2827.85 254.472 2828.43 253.169 2829.59 252.155C2830.78 251.117 2832.3 250.598 2834.15 250.598C2835.31 250.598 2836.42 250.792 2837.48 251.178C2838.57 251.564 2839.8 252.179 2841.18 253.024L2839.95 255.269C2838.72 254.52 2837.65 253.965 2836.76 253.603C2835.89 253.241 2835.05 253.06 2834.23 253.06C2833.14 253.06 2832.26 253.35 2831.58 253.929C2830.93 254.484 2830.61 255.208 2830.61 256.101C2830.61 256.777 2830.79 257.368 2831.15 257.875C2831.54 258.382 2832.04 258.841 2832.67 259.251C2833.32 259.661 2834.41 260.313 2835.93 261.206C2837.45 262.051 2838.63 262.787 2839.48 263.414C2840.32 264.018 2840.98 264.73 2841.47 265.55C2841.95 266.347 2842.19 267.312 2842.19 268.447C2842.19 270.353 2841.56 271.862 2840.31 272.972C2839.05 274.082 2837.45 274.638 2835.49 274.638ZM2855.41 274.638C2853.36 274.638 2851.44 273.998 2849.65 272.719C2847.87 271.415 2846.48 269.485 2845.49 266.926L2847.7 265.659C2848.66 267.855 2849.8 269.497 2851.1 270.583C2852.43 271.645 2853.84 272.176 2855.34 272.176C2856.47 272.176 2857.43 271.874 2858.2 271.271C2858.97 270.667 2859.36 269.726 2859.36 268.447C2859.36 267.674 2859.16 267.011 2858.78 266.456C2858.39 265.9 2857.86 265.394 2857.18 264.935C2856.51 264.476 2855.47 263.849 2854.07 263.052C2852.55 262.184 2851.35 261.447 2850.49 260.844C2849.64 260.216 2848.98 259.529 2848.49 258.78C2848.01 258.008 2847.77 257.103 2847.77 256.065C2847.77 254.472 2848.35 253.169 2849.51 252.155C2850.69 251.117 2852.21 250.598 2854.07 250.598C2855.23 250.598 2856.34 250.792 2857.4 251.178C2858.49 251.564 2859.72 252.179 2861.09 253.024L2859.86 255.269C2858.63 254.52 2857.57 253.965 2856.68 253.603C2855.81 253.241 2854.96 253.06 2854.14 253.06C2853.06 253.06 2852.18 253.35 2851.5 253.929C2850.85 254.484 2850.52 255.208 2850.52 256.101C2850.52 256.777 2850.7 257.368 2851.07 257.875C2851.45 258.382 2851.96 258.841 2852.59 259.251C2853.24 259.661 2854.32 260.313 2855.84 261.206C2857.36 262.051 2858.55 262.787 2859.39 263.414C2860.24 264.018 2860.9 264.73 2861.38 265.55C2861.87 266.347 2862.11 267.312 2862.11 268.447C2862.11 270.353 2861.48 271.862 2860.22 272.972C2858.97 274.082 2857.36 274.638 2855.41 274.638ZM2866.17 271.995H2872.39V253.241H2866.17V251.033H2881.37V253.241H2875.14V271.995H2881.37V274.203H2866.17V271.995ZM2893.69 274.638C2892.04 274.638 2890.6 274.155 2889.34 273.189C2888.11 272.2 2887.14 270.8 2886.44 268.99C2885.77 267.18 2885.43 265.056 2885.43 262.618C2885.43 260.18 2885.77 258.056 2886.44 256.246C2887.14 254.436 2888.11 253.048 2889.34 252.083C2890.6 251.093 2892.04 250.598 2893.69 250.598C2895.33 250.598 2896.76 251.093 2897.99 252.083C2899.25 253.048 2900.21 254.436 2900.89 256.246C2901.59 258.056 2901.94 260.18 2901.94 262.618C2901.94 265.056 2901.59 267.18 2900.89 268.99C2900.21 270.8 2899.25 272.2 2897.99 273.189C2896.76 274.155 2895.33 274.638 2893.69 274.638ZM2888.18 262.618C2888.18 264.621 2888.42 266.347 2888.91 267.795C2889.39 269.243 2890.04 270.341 2890.86 271.09C2891.68 271.838 2892.62 272.212 2893.69 272.212C2894.75 272.212 2895.69 271.838 2896.51 271.09C2897.33 270.341 2897.98 269.243 2898.46 267.795C2898.95 266.347 2899.19 264.621 2899.19 262.618C2899.19 260.615 2898.95 258.889 2898.46 257.441C2897.98 255.993 2897.33 254.895 2896.51 254.146C2895.69 253.398 2894.75 253.024 2893.69 253.024C2892.62 253.024 2891.68 253.398 2890.86 254.146C2890.04 254.895 2889.39 255.993 2888.91 257.441C2888.42 258.889 2888.18 260.615 2888.18 262.618ZM2905.96 251.033H2909.33L2916.35 265.55C2917 266.902 2917.49 267.964 2917.8 268.736C2918.11 269.509 2918.43 270.39 2918.74 271.379H2918.85C2918.71 270.39 2918.62 269.436 2918.6 268.519C2918.57 267.578 2918.56 266.13 2918.56 264.175V251.033H2921.24V274.203H2917.84L2910.85 259.722C2910.2 258.37 2909.72 257.308 2909.4 256.536C2909.09 255.763 2908.79 254.87 2908.5 253.857H2908.39C2908.51 254.846 2908.58 255.812 2908.61 256.753C2908.63 257.67 2908.64 259.106 2908.64 261.061V274.203H2905.96V251.033ZM2947.21 278.837H2952.89V252.191H2947.21V250.309H2955.24V280.72H2947.21V278.837Z" fill="#FF4D9A"/>
<path d="M82.8698 318.828V246.062H100.625C100.625 250.816 98.6842 255.862 94.8034 261.198H103.972C105.233 255.765 107.513 251.544 110.812 248.536C114.111 245.432 118.331 243.879 123.473 243.879C128.227 243.879 132.35 245.383 135.843 248.391C139.433 251.399 141.713 255.667 142.683 261.198H149.523C151.27 255.667 153.986 251.399 157.673 248.391C161.36 245.383 165.58 243.879 170.334 243.879C177.32 243.879 182.995 246.305 187.361 251.156C191.824 255.91 194.056 262.702 194.056 271.53V318.828H173.39V274.587C173.39 265.467 169.607 260.907 162.039 260.907C159.128 261.004 156.703 261.634 154.762 262.799C152.822 263.963 151.415 265.661 150.542 267.892C149.766 270.027 149.232 272.113 148.941 274.15C148.747 276.187 148.65 278.71 148.65 281.718V318.828H128.276V274.587C128.276 265.467 124.492 260.907 116.924 260.907C114.014 261.004 111.588 261.634 109.648 262.799C107.707 263.963 106.3 265.661 105.427 267.892C104.651 270.027 104.117 272.113 103.826 274.15C103.632 276.187 103.535 278.71 103.535 281.718V318.828H82.8698ZM201.982 274.878C201.982 266.34 202.709 258.287 204.165 250.719C205.717 243.055 207.997 236.021 211.005 229.617C214.109 223.117 218.33 217.878 223.666 213.9C229.099 209.922 235.308 207.788 242.294 207.497V225.251C234.047 226.804 228.42 232.091 225.412 241.114C222.405 250.04 220.901 261.295 220.901 274.878C220.901 288.364 222.405 299.618 225.412 308.641C228.42 317.664 234.047 322.952 242.294 324.504V342.113C235.308 341.434 229.147 339.106 223.811 335.128C218.475 331.15 214.255 325.959 211.15 319.556C208.045 313.249 205.717 306.361 204.165 298.89C202.709 291.323 201.982 283.318 201.982 274.878ZM249.534 295.107V246.062H270.199V290.304C270.199 299.424 273.838 303.984 281.114 303.984C285.965 303.984 289.604 302.043 292.029 298.163C294.455 294.282 295.667 288.897 295.667 282.009V246.062H316.333V318.828H297.123C297.22 314.268 299.548 308.689 304.108 302.092H295.231C293.193 307.913 290.186 312.57 286.208 316.063C282.327 319.459 277.67 321.157 272.237 321.157C265.348 321.157 259.818 318.828 255.646 314.171C251.571 309.417 249.534 303.062 249.534 295.107ZM322.71 318.828L350.507 280.99L323.874 246.062H348.906L353.126 252.029C356.619 256.977 358.268 264.593 358.074 274.878H365.787C365.787 266.922 368.407 259.306 373.646 252.029L378.012 246.062H400.569L373.937 281.281L402.607 318.828H377.284L371.754 310.824C368.067 305.682 366.321 298.066 366.515 287.975H358.802C358.802 295.058 356.134 302.48 350.798 310.242L344.976 318.828H322.71ZM442.725 274.732C442.725 283.27 441.949 291.371 440.396 299.036C438.941 306.603 436.661 313.589 433.556 319.992C430.549 326.493 426.328 331.732 420.895 335.71C415.559 339.688 409.398 341.822 402.412 342.113V324.358C410.659 322.806 416.286 317.518 419.294 308.495C422.302 299.569 423.806 288.315 423.806 274.732C423.806 261.246 422.302 250.04 419.294 241.114C416.286 231.994 410.659 226.658 402.412 225.106V207.497C409.398 208.176 415.559 210.504 420.895 214.482C426.231 218.46 430.452 223.651 433.556 230.054C436.661 236.36 438.941 243.297 440.396 250.865C441.949 258.336 442.725 266.291 442.725 274.732Z" fill="#FF4D9A"/>
<path d="M297.721 352.538L265.187 352.538C265.099 352.538 265.014 352.511 264.941 352.462C264.869 352.413 264.813 352.343 264.78 352.262C264.747 352.181 264.738 352.092 264.756 352.006C264.773 351.92 264.816 351.841 264.878 351.779L282.059 334.942C282.123 334.881 282.167 334.8 282.184 334.713C282.202 334.625 282.192 334.535 282.157 334.453C282.121 334.371 282.062 334.302 281.986 334.255C281.91 334.208 281.822 334.185 281.733 334.189L265.637 334.633C265.58 334.634 265.524 334.645 265.472 334.667C265.42 334.69 265.373 334.722 265.333 334.763L242.067 357.476C242.024 357.518 241.989 357.568 241.966 357.624C241.942 357.679 241.93 357.739 241.93 357.799C241.93 357.86 241.942 357.919 241.966 357.975C241.989 358.03 242.024 358.081 242.067 358.123L265.209 381.41C265.253 381.452 265.305 381.486 265.362 381.508C265.419 381.53 265.48 381.541 265.541 381.539L280.22 381.286C280.306 381.284 280.39 381.257 280.462 381.208C280.533 381.159 280.588 381.09 280.621 381.01C280.654 380.93 280.663 380.842 280.647 380.758C280.63 380.673 280.589 380.594 280.529 380.532L264.979 364.522C264.918 364.461 264.876 364.383 264.86 364.298C264.843 364.213 264.852 364.125 264.885 364.045C264.918 363.965 264.974 363.897 265.045 363.849C265.117 363.8 265.202 363.775 265.288 363.774L297.204 363.774C297.356 363.777 297.509 363.788 297.66 363.808C297.722 363.817 297.785 363.812 297.845 363.795C297.905 363.777 297.961 363.746 298.009 363.705C298.056 363.664 298.094 363.614 298.12 363.557C298.146 363.5 298.16 363.438 298.16 363.375L298.16 352.977C298.16 352.861 298.114 352.749 298.032 352.667C297.949 352.585 297.838 352.538 297.721 352.538Z" fill="#FF4D9A"/>
<path d="M408.544 362.964H441.079C441.166 362.964 441.252 362.991 441.324 363.04C441.397 363.089 441.453 363.159 441.486 363.24C441.519 363.321 441.527 363.41 441.51 363.496C441.493 363.582 441.45 363.661 441.388 363.723L424.207 380.559C424.143 380.621 424.099 380.702 424.081 380.789C424.064 380.877 424.074 380.967 424.109 381.049C424.145 381.131 424.204 381.2 424.28 381.247C424.356 381.294 424.444 381.317 424.533 381.313L440.629 380.869C440.685 380.868 440.741 380.857 440.794 380.835C440.846 380.812 440.893 380.78 440.932 380.739L464.199 358.026C464.242 357.984 464.277 357.934 464.3 357.878C464.324 357.823 464.336 357.763 464.336 357.703C464.336 357.642 464.324 357.583 464.3 357.527C464.277 357.472 464.242 357.421 464.199 357.379L441.056 334.092C441.012 334.05 440.96 334.016 440.903 333.994C440.846 333.972 440.785 333.961 440.724 333.963L426.046 334.216C425.959 334.218 425.875 334.245 425.804 334.294C425.733 334.343 425.677 334.412 425.644 334.492C425.612 334.572 425.603 334.659 425.619 334.744C425.635 334.829 425.676 334.908 425.737 334.97L441.287 350.98C441.348 351.041 441.389 351.119 441.406 351.204C441.423 351.289 441.414 351.377 441.381 351.457C441.348 351.537 441.292 351.605 441.22 351.653C441.148 351.701 441.064 351.727 440.977 351.728H409.062C408.909 351.725 408.757 351.714 408.606 351.694C408.544 351.685 408.481 351.69 408.42 351.707C408.36 351.725 408.305 351.755 408.257 351.797C408.21 351.838 408.172 351.888 408.145 351.945C408.119 352.002 408.106 352.064 408.105 352.127V362.525C408.105 362.641 408.152 362.753 408.234 362.835C408.316 362.917 408.428 362.964 408.544 362.964Z" fill="#FF4D9A"/>
<path d="M321.239 330.263L321.239 362.795C321.239 362.882 321.212 362.968 321.163 363.04C321.113 363.113 321.044 363.169 320.963 363.202C320.882 363.235 320.792 363.244 320.707 363.226C320.621 363.209 320.542 363.166 320.48 363.104L303.642 345.924C303.58 345.86 303.5 345.816 303.412 345.799C303.325 345.781 303.234 345.791 303.152 345.827C303.07 345.862 303.001 345.922 302.954 345.997C302.907 346.073 302.884 346.161 302.888 346.25L303.333 362.345C303.333 362.402 303.345 362.458 303.367 362.51C303.389 362.562 303.421 362.609 303.462 362.649L326.177 385.913C326.219 385.956 326.269 385.991 326.325 386.014C326.38 386.038 326.44 386.05 326.501 386.05C326.561 386.05 326.621 386.038 326.676 386.014C326.732 385.991 326.782 385.956 326.824 385.913L350.113 362.772C350.155 362.729 350.189 362.677 350.211 362.62C350.233 362.563 350.244 362.502 350.242 362.441L349.989 347.763C349.987 347.677 349.96 347.593 349.911 347.521C349.862 347.45 349.793 347.395 349.713 347.362C349.633 347.329 349.546 347.32 349.461 347.336C349.376 347.353 349.297 347.394 349.235 347.454L333.224 363.003C333.163 363.064 333.085 363.105 333 363.122C332.915 363.139 332.827 363.13 332.747 363.097C332.667 363.064 332.599 363.008 332.55 362.936C332.502 362.865 332.476 362.78 332.476 362.694L332.476 330.78C332.479 330.628 332.49 330.476 332.51 330.325C332.519 330.263 332.514 330.199 332.496 330.139C332.479 330.079 332.448 330.023 332.407 329.976C332.366 329.928 332.315 329.89 332.258 329.864C332.201 329.838 332.139 329.824 332.077 329.824L321.678 329.824C321.562 329.824 321.45 329.87 321.368 329.953C321.286 330.035 321.239 330.147 321.239 330.263Z" fill="#FF4D9A"/>
<path d="M384.706 385.239L384.706 352.707C384.707 352.62 384.733 352.534 384.783 352.462C384.832 352.389 384.902 352.333 384.983 352.3C385.064 352.267 385.153 352.258 385.239 352.276C385.325 352.293 385.403 352.336 385.465 352.398L402.303 369.578C402.365 369.642 402.445 369.686 402.533 369.703C402.62 369.72 402.711 369.711 402.793 369.675C402.875 369.64 402.944 369.58 402.991 369.505C403.038 369.429 403.061 369.341 403.057 369.251L402.613 353.157C402.612 353.1 402.601 353.044 402.578 352.992C402.556 352.94 402.524 352.893 402.483 352.853L379.768 329.589C379.726 329.546 379.676 329.511 379.62 329.488C379.565 329.464 379.505 329.452 379.445 329.452C379.384 329.452 379.325 329.464 379.269 329.488C379.214 329.511 379.163 329.546 379.121 329.589L355.833 352.73C355.79 352.773 355.756 352.825 355.734 352.882C355.712 352.939 355.702 353 355.703 353.061L355.956 367.739C355.958 367.825 355.985 367.909 356.034 367.981C356.083 368.052 356.152 368.107 356.232 368.14C356.312 368.173 356.4 368.182 356.485 368.165C356.57 368.149 356.648 368.108 356.71 368.048L372.721 352.499C372.783 352.438 372.861 352.397 372.946 352.38C373.03 352.363 373.118 352.372 373.198 352.405C373.278 352.438 373.347 352.494 373.395 352.566C373.443 352.637 373.469 352.722 373.469 352.808L373.469 384.722C373.467 384.874 373.455 385.026 373.436 385.177C373.427 385.239 373.431 385.303 373.449 385.363C373.467 385.423 373.497 385.479 373.538 385.526C373.579 385.574 373.63 385.612 373.687 385.638C373.744 385.664 373.806 385.678 373.869 385.678L384.267 385.678C384.384 385.678 384.495 385.632 384.578 385.549C384.66 385.467 384.706 385.355 384.706 385.239Z" fill="#FF4D9A"/>
<path d="M1718.79 2408.94L1891.96 2583.69" stroke="#FF4D9A" stroke-width="7.64653"/>
<path d="M1891.96 2404V2587.52H1719.91" stroke="#FF4D9A" stroke-width="7.64653"/>
</svg>
